<?xml version="1.0" encoding="UTF-8" standalone="no"?>
<!DOCTYPE svg PUBLIC "-//W3C//DTD SVG 1.1//EN"
 "http://www.w3.org/Graphics/SVG/1.1/DTD/svg11.dtd">
<!-- Generated by graphviz version 2.42.3 (20191010.1750)
 -->
<!-- Title: snakemake_dag Pages: 1 -->
<svg width="576pt" height="692pt"
 viewBox="0.00 0.00 575.50 692.00" xmlns="http://www.w3.org/2000/svg" xmlns:xlink="http://www.w3.org/1999/xlink">
<g id="graph0" class="graph" transform="scale(1 1) rotate(0) translate(4 688)">
<title>snakemake_dag</title>
<polygon fill="white" stroke="transparent" points="-4,4 -4,-688 571.5,-688 571.5,4 -4,4"/>
<!-- 0 -->
<g id="node1" class="node">
<title>0</title>
<path fill="none" stroke="#bed856" stroke-width="2" d="M211,-36C211,-36 181,-36 181,-36 175,-36 169,-30 169,-24 169,-24 169,-12 169,-12 169,-6 175,0 181,0 181,0 211,0 211,0 217,0 223,-6 223,-12 223,-12 223,-24 223,-24 223,-30 217,-36 211,-36"/>
<text text-anchor="middle" x="196" y="-15.5" font-family="sans" font-size="10.00">all</text>
</g>
<!-- 1 -->
<g id="node2" class="node">
<title>1</title>
<path fill="none" stroke="#566bd8" stroke-width="2" d="M139.5,-684C139.5,-684 36.5,-684 36.5,-684 30.5,-684 24.5,-678 24.5,-672 24.5,-672 24.5,-660 24.5,-660 24.5,-654 30.5,-648 36.5,-648 36.5,-648 139.5,-648 139.5,-648 145.5,-648 151.5,-654 151.5,-660 151.5,-660 151.5,-672 151.5,-672 151.5,-678 145.5,-684 139.5,-684"/>
<text text-anchor="middle" x="88" y="-663.5" font-family="sans" font-size="10.00">fastp_trim_and_merge</text>
</g>
<!-- 1&#45;&gt;0 -->
<g id="edge7" class="edge">
<title>1&#45;&gt;0</title>
<path fill="none" stroke="grey" stroke-width="2" d="M68.47,-647.86C42.54,-623.11 0,-574.63 0,-523 0,-523 0,-523 0,-161 0,-83.31 102.25,-43.77 159.04,-27.8"/>
<polygon fill="grey" stroke="grey" stroke-width="2" points="160.01,-31.16 168.75,-25.17 158.18,-24.4 160.01,-31.16"/>
</g>
<!-- 3 -->
<g id="node4" class="node">
<title>3</title>
<path fill="none" stroke="#8fd856" stroke-width="2" d="M135.5,-540C135.5,-540 40.5,-540 40.5,-540 34.5,-540 28.5,-534 28.5,-528 28.5,-528 28.5,-516 28.5,-516 28.5,-510 34.5,-504 40.5,-504 40.5,-504 135.5,-504 135.5,-504 141.5,-504 147.5,-510 147.5,-516 147.5,-516 147.5,-528 147.5,-528 147.5,-534 141.5,-540 135.5,-540"/>
<text text-anchor="middle" x="88" y="-519.5" font-family="sans" font-size="10.00">vsearch_fastq_report</text>
</g>
<!-- 1&#45;&gt;3 -->
<g id="edge10" class="edge">
<title>1&#45;&gt;3</title>
<path fill="none" stroke="grey" stroke-width="2" d="M88,-647.87C88,-623.67 88,-579.21 88,-550.39"/>
<polygon fill="grey" stroke="grey" stroke-width="2" points="91.5,-550.19 88,-540.19 84.5,-550.19 91.5,-550.19"/>
</g>
<!-- 13 -->
<g id="node14" class="node">
<title>13</title>
<path fill="none" stroke="#78d856" stroke-width="2" d="M224,-612C224,-612 162,-612 162,-612 156,-612 150,-606 150,-600 150,-600 150,-588 150,-588 150,-582 156,-576 162,-576 162,-576 224,-576 224,-576 230,-576 236,-582 236,-588 236,-588 236,-600 236,-600 236,-606 230,-612 224,-612"/>
<text text-anchor="middle" x="193" y="-591.5" font-family="sans" font-size="10.00">fastq_to_fasta</text>
</g>
<!-- 1&#45;&gt;13 -->
<g id="edge19" class="edge">
<title>1&#45;&gt;13</title>
<path fill="none" stroke="grey" stroke-width="2" d="M113.69,-647.88C127.29,-638.81 144.17,-627.55 158.86,-617.76"/>
<polygon fill="grey" stroke="grey" stroke-width="2" points="160.84,-620.65 167.22,-612.19 156.95,-614.82 160.84,-620.65"/>
</g>
<!-- 2 -->
<g id="node3" class="node">
<title>2</title>
<path fill="none" stroke="#d89c56" stroke-width="2" d="M269.5,-468C269.5,-468 186.5,-468 186.5,-468 180.5,-468 174.5,-462 174.5,-456 174.5,-456 174.5,-444 174.5,-444 174.5,-438 180.5,-432 186.5,-432 186.5,-432 269.5,-432 269.5,-432 275.5,-432 281.5,-438 281.5,-444 281.5,-444 281.5,-456 281.5,-456 281.5,-462 275.5,-468 269.5,-468"/>
<text text-anchor="middle" x="228" y="-447.5" font-family="sans" font-size="10.00">vsearch_denoising</text>
</g>
<!-- 2&#45;&gt;0 -->
<g id="edge5" class="edge">
<title>2&#45;&gt;0</title>
<path fill="none" stroke="grey" stroke-width="2" d="M198.38,-431.9C184.59,-422.71 168.87,-410.33 158,-396 132.32,-362.13 123,-349.5 123,-307 123,-307 123,-307 123,-161 123,-116.03 152.31,-71.04 173.79,-44.1"/>
<polygon fill="grey" stroke="grey" stroke-width="2" points="176.52,-46.29 180.16,-36.35 171.11,-41.85 176.52,-46.29"/>
</g>
<!-- 14 -->
<g id="node15" class="node">
<title>14</title>
<path fill="none" stroke="#569ad8" stroke-width="2" d="M277,-396C277,-396 179,-396 179,-396 173,-396 167,-390 167,-384 167,-384 167,-372 167,-372 167,-366 173,-360 179,-360 179,-360 277,-360 277,-360 283,-360 289,-366 289,-372 289,-372 289,-384 289,-384 289,-390 283,-396 277,-396"/>
<text text-anchor="middle" x="228" y="-375.5" font-family="sans" font-size="10.00">vsearch_rereplication</text>
</g>
<!-- 2&#45;&gt;14 -->
<g id="edge20" class="edge">
<title>2&#45;&gt;14</title>
<path fill="none" stroke="grey" stroke-width="2" d="M228,-431.7C228,-423.98 228,-414.71 228,-406.11"/>
<polygon fill="grey" stroke="grey" stroke-width="2" points="231.5,-406.1 228,-396.1 224.5,-406.1 231.5,-406.1"/>
</g>
<!-- 17 -->
<g id="node18" class="node">
<title>17</title>
<path fill="none" stroke="#56d8b9" stroke-width="2" d="M442.5,-396C442.5,-396 327.5,-396 327.5,-396 321.5,-396 315.5,-390 315.5,-384 315.5,-384 315.5,-372 315.5,-372 315.5,-366 321.5,-360 327.5,-360 327.5,-360 442.5,-360 442.5,-360 448.5,-360 454.5,-366 454.5,-372 454.5,-372 454.5,-384 454.5,-384 454.5,-390 448.5,-396 442.5,-396"/>
<text text-anchor="middle" x="385" y="-375.5" font-family="sans" font-size="10.00">vsearch_dechimerisation</text>
</g>
<!-- 2&#45;&gt;17 -->
<g id="edge23" class="edge">
<title>2&#45;&gt;17</title>
<path fill="none" stroke="grey" stroke-width="2" d="M266.41,-431.88C287.87,-422.31 314.8,-410.3 337.57,-400.15"/>
<polygon fill="grey" stroke="grey" stroke-width="2" points="339.01,-403.34 346.72,-396.07 336.16,-396.94 339.01,-403.34"/>
</g>
<!-- 3&#45;&gt;0 -->
<g id="edge6" class="edge">
<title>3&#45;&gt;0</title>
<path fill="none" stroke="grey" stroke-width="2" d="M87.41,-503.95C86.53,-477.3 85,-424.12 85,-379 85,-379 85,-379 85,-161 85,-110.59 128.96,-67.39 161.55,-42.29"/>
<polygon fill="grey" stroke="grey" stroke-width="2" points="164.05,-44.79 169.98,-36 159.87,-39.18 164.05,-44.79"/>
</g>
<!-- 4 -->
<g id="node5" class="node">
<title>4</title>
<path fill="none" stroke="#d88556" stroke-width="2" d="M555.5,-108C555.5,-108 510.5,-108 510.5,-108 504.5,-108 498.5,-102 498.5,-96 498.5,-96 498.5,-84 498.5,-84 498.5,-78 504.5,-72 510.5,-72 510.5,-72 555.5,-72 555.5,-72 561.5,-72 567.5,-78 567.5,-84 567.5,-84 567.5,-96 567.5,-96 567.5,-102 561.5,-108 555.5,-108"/>
<text text-anchor="middle" x="533" y="-87.5" font-family="sans" font-size="10.00">conda_env</text>
</g>
<!-- 4&#45;&gt;0 -->
<g id="edge1" class="edge">
<title>4&#45;&gt;0</title>
<path fill="none" stroke="grey" stroke-width="2" d="M498.14,-74.84C495.07,-73.81 492,-72.84 489,-72 398.76,-46.65 289.37,-30.62 233.22,-23.43"/>
<polygon fill="grey" stroke="grey" stroke-width="2" points="233.41,-19.93 223.05,-22.15 232.53,-26.87 233.41,-19.93"/>
</g>
<!-- 5 -->
<g id="node6" class="node">
<title>5</title>
<path fill="none" stroke="#56d863" stroke-width="2" d="M260.5,-108C260.5,-108 201.5,-108 201.5,-108 195.5,-108 189.5,-102 189.5,-96 189.5,-96 189.5,-84 189.5,-84 189.5,-78 195.5,-72 201.5,-72 201.5,-72 260.5,-72 260.5,-72 266.5,-72 272.5,-78 272.5,-84 272.5,-84 272.5,-96 272.5,-96 272.5,-102 266.5,-108 260.5,-108"/>
<text text-anchor="middle" x="231" y="-87.5" font-family="sans" font-size="10.00">biom_convert</text>
</g>
<!-- 5&#45;&gt;0 -->
<g id="edge3" class="edge">
<title>5&#45;&gt;0</title>
<path fill="none" stroke="grey" stroke-width="2" d="M222.35,-71.7C218.36,-63.73 213.55,-54.1 209.13,-45.26"/>
<polygon fill="grey" stroke="grey" stroke-width="2" points="212.15,-43.48 204.55,-36.1 205.89,-46.61 212.15,-43.48"/>
</g>
<!-- 6 -->
<g id="node7" class="node">
<title>6</title>
<path fill="none" stroke="#56b1d8" stroke-width="2" d="M237,-180C237,-180 163,-180 163,-180 157,-180 151,-174 151,-168 151,-168 151,-156 151,-156 151,-150 157,-144 163,-144 163,-144 237,-144 237,-144 243,-144 249,-150 249,-156 249,-156 249,-168 249,-168 249,-174 243,-180 237,-180"/>
<text text-anchor="middle" x="200" y="-159.5" font-family="sans" font-size="10.00">kraken_to_krona</text>
</g>
<!-- 6&#45;&gt;0 -->
<g id="edge4" class="edge">
<title>6&#45;&gt;0</title>
<path fill="none" stroke="grey" stroke-width="2" d="M191.69,-143.79C187.26,-133.63 182.26,-120.38 180,-108 177.13,-92.26 177.66,-87.83 180,-72 181.28,-63.35 183.67,-54.15 186.22,-45.89"/>
<polygon fill="grey" stroke="grey" stroke-width="2" points="189.55,-46.96 189.35,-36.37 182.9,-44.78 189.55,-46.96"/>
</g>
<!-- 7 -->
<g id="node8" class="node">
<title>7</title>
<path fill="none" stroke="#61d856" stroke-width="2" d="M367.5,-108C367.5,-108 302.5,-108 302.5,-108 296.5,-108 290.5,-102 290.5,-96 290.5,-96 290.5,-84 290.5,-84 290.5,-78 296.5,-72 302.5,-72 302.5,-72 367.5,-72 367.5,-72 373.5,-72 379.5,-78 379.5,-84 379.5,-84 379.5,-96 379.5,-96 379.5,-102 373.5,-108 367.5,-108"/>
<text text-anchor="middle" x="335" y="-87.5" font-family="sans" font-size="10.00">mlca_to_krona</text>
</g>
<!-- 7&#45;&gt;0 -->
<g id="edge2" class="edge">
<title>7&#45;&gt;0</title>
<path fill="none" stroke="grey" stroke-width="2" d="M301,-71.88C280.13,-61.37 253.44,-47.92 232.18,-37.22"/>
<polygon fill="grey" stroke="grey" stroke-width="2" points="233.65,-34.04 223.14,-32.67 230.5,-40.29 233.65,-34.04"/>
</g>
<!-- 8 -->
<g id="node9" class="node">
<title>8</title>
<path fill="none" stroke="#56d8a2" stroke-width="2" d="M468,-108C468,-108 410,-108 410,-108 404,-108 398,-102 398,-96 398,-96 398,-84 398,-84 398,-78 404,-72 410,-72 410,-72 468,-72 468,-72 474,-72 480,-78 480,-84 480,-84 480,-96 480,-96 480,-102 474,-108 468,-108"/>
<text text-anchor="middle" x="439" y="-87.5" font-family="sans" font-size="10.00">mlca_2_biom</text>
</g>
<!-- 8&#45;&gt;0 -->
<g id="edge8" class="edge">
<title>8&#45;&gt;0</title>
<path fill="none" stroke="grey" stroke-width="2" d="M397.86,-75.08C394.53,-74.02 391.21,-72.98 388,-72 334.4,-55.68 271.74,-38.79 232.96,-28.59"/>
<polygon fill="grey" stroke="grey" stroke-width="2" points="233.72,-25.17 223.16,-26.02 231.94,-31.94 233.72,-25.17"/>
</g>
<!-- 9 -->
<g id="node10" class="node">
<title>9</title>
<path fill="none" stroke="#d6d856" stroke-width="2" d="M278,-540C278,-540 178,-540 178,-540 172,-540 166,-534 166,-528 166,-528 166,-516 166,-516 166,-510 172,-504 178,-504 178,-504 278,-504 278,-504 284,-504 290,-510 290,-516 290,-516 290,-528 290,-528 290,-534 284,-540 278,-540"/>
<text text-anchor="middle" x="228" y="-519.5" font-family="sans" font-size="10.00">vsearch_dereplication</text>
</g>
<!-- 9&#45;&gt;2 -->
<g id="edge9" class="edge">
<title>9&#45;&gt;2</title>
<path fill="none" stroke="grey" stroke-width="2" d="M228,-503.7C228,-495.98 228,-486.71 228,-478.11"/>
<polygon fill="grey" stroke="grey" stroke-width="2" points="231.5,-478.1 228,-468.1 224.5,-478.1 231.5,-478.1"/>
</g>
<!-- 10 -->
<g id="node11" class="node">
<title>10</title>
<path fill="none" stroke="#56d892" stroke-width="2" d="M350.5,-180C350.5,-180 279.5,-180 279.5,-180 273.5,-180 267.5,-174 267.5,-168 267.5,-168 267.5,-156 267.5,-156 267.5,-150 273.5,-144 279.5,-144 279.5,-144 350.5,-144 350.5,-144 356.5,-144 362.5,-150 362.5,-156 362.5,-156 362.5,-168 362.5,-168 362.5,-174 356.5,-180 350.5,-180"/>
<text text-anchor="middle" x="315" y="-159.5" font-family="sans" font-size="10.00">kraken_to_biom</text>
</g>
<!-- 10&#45;&gt;5 -->
<g id="edge11" class="edge">
<title>10&#45;&gt;5</title>
<path fill="none" stroke="grey" stroke-width="2" d="M294.24,-143.7C283.76,-134.97 270.89,-124.24 259.5,-114.75"/>
<polygon fill="grey" stroke="grey" stroke-width="2" points="261.45,-111.82 251.53,-108.1 256.97,-117.19 261.45,-111.82"/>
</g>
<!-- 11 -->
<g id="node12" class="node">
<title>11</title>
<path fill="none" stroke="#56d87b" stroke-width="2" d="M244,-252C244,-252 212,-252 212,-252 206,-252 200,-246 200,-240 200,-240 200,-228 200,-228 200,-222 206,-216 212,-216 212,-216 244,-216 244,-216 250,-216 256,-222 256,-228 256,-228 256,-240 256,-240 256,-246 250,-252 244,-252"/>
<text text-anchor="middle" x="228" y="-231.5" font-family="sans" font-size="10.00">kraken2</text>
</g>
<!-- 11&#45;&gt;6 -->
<g id="edge12" class="edge">
<title>11&#45;&gt;6</title>
<path fill="none" stroke="grey" stroke-width="2" d="M221.08,-215.7C217.93,-207.81 214.12,-198.3 210.62,-189.55"/>
<polygon fill="grey" stroke="grey" stroke-width="2" points="213.81,-188.09 206.84,-180.1 207.31,-190.69 213.81,-188.09"/>
</g>
<!-- 11&#45;&gt;10 -->
<g id="edge16" class="edge">
<title>11&#45;&gt;10</title>
<path fill="none" stroke="grey" stroke-width="2" d="M249.51,-215.7C260.46,-206.88 273.95,-196.03 285.82,-186.47"/>
<polygon fill="grey" stroke="grey" stroke-width="2" points="288.14,-189.1 293.74,-180.1 283.76,-183.65 288.14,-189.1"/>
</g>
<!-- 12 -->
<g id="node13" class="node">
<title>12</title>
<path fill="none" stroke="#d85656" stroke-width="2" d="M423,-180C423,-180 393,-180 393,-180 387,-180 381,-174 381,-168 381,-168 381,-156 381,-156 381,-150 387,-144 393,-144 393,-144 423,-144 423,-144 429,-144 435,-150 435,-156 435,-156 435,-168 435,-168 435,-174 429,-180 423,-180"/>
<text text-anchor="middle" x="408" y="-159.5" font-family="sans" font-size="10.00">mlca</text>
</g>
<!-- 12&#45;&gt;7 -->
<g id="edge13" class="edge">
<title>12&#45;&gt;7</title>
<path fill="none" stroke="grey" stroke-width="2" d="M389.96,-143.7C380.94,-135.05 369.88,-124.45 360.06,-115.03"/>
<polygon fill="grey" stroke="grey" stroke-width="2" points="362.48,-112.5 352.84,-108.1 357.63,-117.55 362.48,-112.5"/>
</g>
<!-- 12&#45;&gt;8 -->
<g id="edge14" class="edge">
<title>12&#45;&gt;8</title>
<path fill="none" stroke="grey" stroke-width="2" d="M415.66,-143.7C419.19,-135.73 423.46,-126.1 427.37,-117.26"/>
<polygon fill="grey" stroke="grey" stroke-width="2" points="430.58,-118.67 431.43,-108.1 424.18,-115.83 430.58,-118.67"/>
</g>
<!-- 13&#45;&gt;9 -->
<g id="edge15" class="edge">
<title>13&#45;&gt;9</title>
<path fill="none" stroke="grey" stroke-width="2" d="M201.65,-575.7C205.64,-567.73 210.45,-558.1 214.87,-549.26"/>
<polygon fill="grey" stroke="grey" stroke-width="2" points="218.11,-550.61 219.45,-540.1 211.85,-547.48 218.11,-550.61"/>
</g>
<!-- 14&#45;&gt;11 -->
<g id="edge17" class="edge">
<title>14&#45;&gt;11</title>
<path fill="none" stroke="grey" stroke-width="2" d="M228,-359.87C228,-335.67 228,-291.21 228,-262.39"/>
<polygon fill="grey" stroke="grey" stroke-width="2" points="231.5,-262.19 228,-252.19 224.5,-262.19 231.5,-262.19"/>
</g>
<!-- 15 -->
<g id="node16" class="node">
<title>15</title>
<path fill="none" stroke="#5682d8" stroke-width="2" d="M417.5,-252C417.5,-252 364.5,-252 364.5,-252 358.5,-252 352.5,-246 352.5,-240 352.5,-240 352.5,-228 352.5,-228 352.5,-222 358.5,-216 364.5,-216 364.5,-216 417.5,-216 417.5,-216 423.5,-216 429.5,-222 429.5,-228 429.5,-228 429.5,-240 429.5,-240 429.5,-246 423.5,-252 417.5,-252"/>
<text text-anchor="middle" x="391" y="-231.5" font-family="sans" font-size="10.00">tax_to_blast</text>
</g>
<!-- 15&#45;&gt;12 -->
<g id="edge18" class="edge">
<title>15&#45;&gt;12</title>
<path fill="none" stroke="grey" stroke-width="2" d="M395.2,-215.7C397.1,-207.9 399.38,-198.51 401.48,-189.83"/>
<polygon fill="grey" stroke="grey" stroke-width="2" points="404.89,-190.65 403.85,-180.1 398.08,-189 404.89,-190.65"/>
</g>
<!-- 16 -->
<g id="node17" class="node">
<title>16</title>
<path fill="none" stroke="#56c9d8" stroke-width="2" d="M402,-324C402,-324 372,-324 372,-324 366,-324 360,-318 360,-312 360,-312 360,-300 360,-300 360,-294 366,-288 372,-288 372,-288 402,-288 402,-288 408,-288 414,-294 414,-300 414,-300 414,-312 414,-312 414,-318 408,-324 402,-324"/>
<text text-anchor="middle" x="387" y="-303.5" font-family="sans" font-size="10.00">blastn</text>
</g>
<!-- 16&#45;&gt;15 -->
<g id="edge21" class="edge">
<title>16&#45;&gt;15</title>
<path fill="none" stroke="grey" stroke-width="2" d="M387.99,-287.7C388.43,-279.98 388.96,-270.71 389.45,-262.11"/>
<polygon fill="grey" stroke="grey" stroke-width="2" points="392.95,-262.29 390.02,-252.1 385.96,-261.89 392.95,-262.29"/>
</g>
<!-- 17&#45;&gt;16 -->
<g id="edge22" class="edge">
<title>17&#45;&gt;16</title>
<path fill="none" stroke="grey" stroke-width="2" d="M385.49,-359.7C385.71,-351.98 385.98,-342.71 386.23,-334.11"/>
<polygon fill="grey" stroke="grey" stroke-width="2" points="389.72,-334.2 386.51,-324.1 382.73,-334 389.72,-334.2"/>
</g>
</g>
</svg>
