<?xml version="1.0" encoding="UTF-8" standalone="no"?>
<!DOCTYPE svg PUBLIC "-//W3C//DTD SVG 1.1//EN"
 "http://www.w3.org/Graphics/SVG/1.1/DTD/svg11.dtd">
<!-- Generated by graphviz version 2.42.3 (20191010.1750)
 -->
<!-- Title: snakemake_dag Pages: 1 -->
<svg width="828pt" height="836pt"
 viewBox="0.00 0.00 828.00 836.00" xmlns="http://www.w3.org/2000/svg" xmlns:xlink="http://www.w3.org/1999/xlink">
<g id="graph0" class="graph" transform="scale(1 1) rotate(0) translate(4 832)">
<title>snakemake_dag</title>
<polygon fill="white" stroke="transparent" points="-4,4 -4,-832 824,-832 824,4 -4,4"/>
<!-- 0 -->
<g id="node1" class="node">
<title>0</title>
<path fill="none" stroke="#d8a456" stroke-width="2" d="M352.5,-36C352.5,-36 322.5,-36 322.5,-36 316.5,-36 310.5,-30 310.5,-24 310.5,-24 310.5,-12 310.5,-12 310.5,-6 316.5,0 322.5,0 322.5,0 352.5,0 352.5,0 358.5,0 364.5,-6 364.5,-12 364.5,-12 364.5,-24 364.5,-24 364.5,-30 358.5,-36 352.5,-36"/>
<text text-anchor="middle" x="337.5" y="-15.5" font-family="sans" font-size="10.00">all</text>
</g>
<!-- 1 -->
<g id="node2" class="node">
<title>1</title>
<path fill="none" stroke="#d89556" stroke-width="2" d="M288.5,-252C288.5,-252 256.5,-252 256.5,-252 250.5,-252 244.5,-246 244.5,-240 244.5,-240 244.5,-228 244.5,-228 244.5,-222 250.5,-216 256.5,-216 256.5,-216 288.5,-216 288.5,-216 294.5,-216 300.5,-222 300.5,-228 300.5,-228 300.5,-240 300.5,-240 300.5,-246 294.5,-252 288.5,-252"/>
<text text-anchor="middle" x="272.5" y="-231.5" font-family="sans" font-size="10.00">kraken2</text>
</g>
<!-- 1&#45;&gt;0 -->
<g id="edge7" class="edge">
<title>1&#45;&gt;0</title>
<path fill="none" stroke="grey" stroke-width="2" d="M244.25,-232.8C207.4,-230.83 144.15,-221.22 114.5,-180 105.16,-167.01 107.27,-158.28 114.5,-144 150.75,-72.39 247.07,-39.57 300.5,-26.48"/>
<polygon fill="grey" stroke="grey" stroke-width="2" points="301.33,-29.88 310.27,-24.19 299.73,-23.06 301.33,-29.88"/>
</g>
<!-- 6 -->
<g id="node7" class="node">
<title>6</title>
<path fill="none" stroke="#56d0d8" stroke-width="2" d="M219,-180C219,-180 136,-180 136,-180 130,-180 124,-174 124,-168 124,-168 124,-156 124,-156 124,-150 130,-144 136,-144 136,-144 219,-144 219,-144 225,-144 231,-150 231,-156 231,-156 231,-168 231,-168 231,-174 225,-180 219,-180"/>
<text text-anchor="middle" x="177.5" y="-159.5" font-family="sans" font-size="10.00">kraken_krona_plot</text>
</g>
<!-- 1&#45;&gt;6 -->
<g id="edge14" class="edge">
<title>1&#45;&gt;6</title>
<path fill="none" stroke="grey" stroke-width="2" d="M249.02,-215.7C236.94,-206.8 222.05,-195.82 208.98,-186.2"/>
<polygon fill="grey" stroke="grey" stroke-width="2" points="210.84,-183.22 200.71,-180.1 206.69,-188.85 210.84,-183.22"/>
</g>
<!-- 13 -->
<g id="node14" class="node">
<title>13</title>
<path fill="none" stroke="#d87d56" stroke-width="2" d="M332,-180C332,-180 261,-180 261,-180 255,-180 249,-174 249,-168 249,-168 249,-156 249,-156 249,-150 255,-144 261,-144 261,-144 332,-144 332,-144 338,-144 344,-150 344,-156 344,-156 344,-168 344,-168 344,-174 338,-180 332,-180"/>
<text text-anchor="middle" x="296.5" y="-159.5" font-family="sans" font-size="10.00">kraken_to_biom</text>
</g>
<!-- 1&#45;&gt;13 -->
<g id="edge21" class="edge">
<title>1&#45;&gt;13</title>
<path fill="none" stroke="grey" stroke-width="2" d="M278.43,-215.7C281.11,-207.9 284.33,-198.51 287.3,-189.83"/>
<polygon fill="grey" stroke="grey" stroke-width="2" points="290.7,-190.7 290.64,-180.1 284.08,-188.43 290.7,-190.7"/>
</g>
<!-- 2 -->
<g id="node3" class="node">
<title>2</title>
<path fill="none" stroke="#a7d856" stroke-width="2" d="M115,-828C115,-828 12,-828 12,-828 6,-828 0,-822 0,-816 0,-816 0,-804 0,-804 0,-798 6,-792 12,-792 12,-792 115,-792 115,-792 121,-792 127,-798 127,-804 127,-804 127,-816 127,-816 127,-822 121,-828 115,-828"/>
<text text-anchor="middle" x="63.5" y="-807.5" font-family="sans" font-size="10.00">fastp_trim_and_merge</text>
</g>
<!-- 2&#45;&gt;0 -->
<g id="edge4" class="edge">
<title>2&#45;&gt;0</title>
<path fill="none" stroke="grey" stroke-width="2" d="M54.38,-791.61C41.5,-765.36 19.5,-713.71 19.5,-667 19.5,-667 19.5,-667 19.5,-161 19.5,-39.24 216.29,-21.17 300.26,-19.01"/>
<polygon fill="grey" stroke="grey" stroke-width="2" points="300.46,-22.5 310.39,-18.81 300.32,-15.5 300.46,-22.5"/>
</g>
<!-- 12 -->
<g id="node13" class="node">
<title>12</title>
<path fill="none" stroke="#56a9d8" stroke-width="2" d="M151.5,-756C151.5,-756 63.5,-756 63.5,-756 57.5,-756 51.5,-750 51.5,-744 51.5,-744 51.5,-732 51.5,-732 51.5,-726 57.5,-720 63.5,-720 63.5,-720 151.5,-720 151.5,-720 157.5,-720 163.5,-726 163.5,-732 163.5,-732 163.5,-744 163.5,-744 163.5,-750 157.5,-756 151.5,-756"/>
<text text-anchor="middle" x="107.5" y="-735.5" font-family="sans" font-size="10.00">keep_fwd_unpaired</text>
</g>
<!-- 2&#45;&gt;12 -->
<g id="edge20" class="edge">
<title>2&#45;&gt;12</title>
<path fill="none" stroke="grey" stroke-width="2" d="M74.38,-791.7C79.49,-783.56 85.7,-773.69 91.34,-764.7"/>
<polygon fill="grey" stroke="grey" stroke-width="2" points="94.39,-766.43 96.75,-756.1 88.46,-762.71 94.39,-766.43"/>
</g>
<!-- 3 -->
<g id="node4" class="node">
<title>3</title>
<path fill="none" stroke="#56b9d8" stroke-width="2" d="M155,-612C155,-612 60,-612 60,-612 54,-612 48,-606 48,-600 48,-600 48,-588 48,-588 48,-582 54,-576 60,-576 60,-576 155,-576 155,-576 161,-576 167,-582 167,-588 167,-588 167,-600 167,-600 167,-606 161,-612 155,-612"/>
<text text-anchor="middle" x="107.5" y="-591.5" font-family="sans" font-size="10.00">vsearch_fastq_report</text>
</g>
<!-- 3&#45;&gt;0 -->
<g id="edge3" class="edge">
<title>3&#45;&gt;0</title>
<path fill="none" stroke="grey" stroke-width="2" d="M97.14,-575.76C82.49,-549.7 57.5,-498.31 57.5,-451 57.5,-451 57.5,-451 57.5,-161 57.5,-53.37 224.09,-27.29 300.27,-21"/>
<polygon fill="grey" stroke="grey" stroke-width="2" points="300.69,-24.47 310.4,-20.23 300.16,-17.49 300.69,-24.47"/>
</g>
<!-- 4 -->
<g id="node5" class="node">
<title>4</title>
<path fill="none" stroke="#567bd8" stroke-width="2" d="M767,-108C767,-108 722,-108 722,-108 716,-108 710,-102 710,-96 710,-96 710,-84 710,-84 710,-78 716,-72 722,-72 722,-72 767,-72 767,-72 773,-72 779,-78 779,-84 779,-84 779,-96 779,-96 779,-102 773,-108 767,-108"/>
<text text-anchor="middle" x="744.5" y="-87.5" font-family="sans" font-size="10.00">conda_env</text>
</g>
<!-- 4&#45;&gt;0 -->
<g id="edge5" class="edge">
<title>4&#45;&gt;0</title>
<path fill="none" stroke="grey" stroke-width="2" d="M709.67,-74.73C706.6,-73.72 703.51,-72.79 700.5,-72 583.85,-41.36 441.15,-27.05 374.76,-21.68"/>
<polygon fill="grey" stroke="grey" stroke-width="2" points="375.03,-18.19 364.78,-20.89 374.48,-25.16 375.03,-18.19"/>
</g>
<!-- 5 -->
<g id="node6" class="node">
<title>5</title>
<path fill="none" stroke="#ced856" stroke-width="2" d="M329,-108C329,-108 270,-108 270,-108 264,-108 258,-102 258,-96 258,-96 258,-84 258,-84 258,-78 264,-72 270,-72 270,-72 329,-72 329,-72 335,-72 341,-78 341,-84 341,-84 341,-96 341,-96 341,-102 335,-108 329,-108"/>
<text text-anchor="middle" x="299.5" y="-87.5" font-family="sans" font-size="10.00">biom_convert</text>
</g>
<!-- 5&#45;&gt;0 -->
<g id="edge1" class="edge">
<title>5&#45;&gt;0</title>
<path fill="none" stroke="grey" stroke-width="2" d="M308.89,-71.7C313.26,-63.64 318.56,-53.89 323.4,-44.98"/>
<polygon fill="grey" stroke="grey" stroke-width="2" points="326.52,-46.56 328.21,-36.1 320.37,-43.22 326.52,-46.56"/>
</g>
<!-- 6&#45;&gt;0 -->
<g id="edge2" class="edge">
<title>6&#45;&gt;0</title>
<path fill="none" stroke="grey" stroke-width="2" d="M188.49,-143.73C201.26,-124.59 223.77,-93.57 248.5,-72 264.28,-58.24 284.12,-46.03 301.06,-36.81"/>
<polygon fill="grey" stroke="grey" stroke-width="2" points="302.93,-39.78 310.13,-32 299.65,-33.59 302.93,-39.78"/>
</g>
<!-- 7 -->
<g id="node8" class="node">
<title>7</title>
<path fill="none" stroke="#d8cb56" stroke-width="2" d="M600,-108C600,-108 535,-108 535,-108 529,-108 523,-102 523,-96 523,-96 523,-84 523,-84 523,-78 529,-72 535,-72 535,-72 600,-72 600,-72 606,-72 612,-78 612,-84 612,-84 612,-96 612,-96 612,-102 606,-108 600,-108"/>
<text text-anchor="middle" x="567.5" y="-87.5" font-family="sans" font-size="10.00">mlca_to_krona</text>
</g>
<!-- 7&#45;&gt;0 -->
<g id="edge10" class="edge">
<title>7&#45;&gt;0</title>
<path fill="none" stroke="grey" stroke-width="2" d="M522.72,-74.86C519.6,-73.89 516.51,-72.93 513.5,-72 465.62,-57.25 410.27,-40.66 374.62,-30.03"/>
<polygon fill="grey" stroke="grey" stroke-width="2" points="375.25,-26.57 364.67,-27.07 373.25,-33.28 375.25,-26.57"/>
</g>
<!-- 8 -->
<g id="node9" class="node">
<title>8</title>
<path fill="none" stroke="#56d8a9" stroke-width="2" d="M387.5,-252C387.5,-252 357.5,-252 357.5,-252 351.5,-252 345.5,-246 345.5,-240 345.5,-240 345.5,-228 345.5,-228 345.5,-222 351.5,-216 357.5,-216 357.5,-216 387.5,-216 387.5,-216 393.5,-216 399.5,-222 399.5,-228 399.5,-228 399.5,-240 399.5,-240 399.5,-246 393.5,-252 387.5,-252"/>
<text text-anchor="middle" x="372.5" y="-231.5" font-family="sans" font-size="10.00">sintax</text>
</g>
<!-- 8&#45;&gt;0 -->
<g id="edge9" class="edge">
<title>8&#45;&gt;0</title>
<path fill="none" stroke="grey" stroke-width="2" d="M370.47,-215.53C366.93,-185.9 359.07,-123.93 349.5,-72 347.94,-63.52 345.96,-54.34 344.06,-46.04"/>
<polygon fill="grey" stroke="grey" stroke-width="2" points="347.43,-45.05 341.74,-36.11 340.61,-46.65 347.43,-45.05"/>
</g>
<!-- 15 -->
<g id="node16" class="node">
<title>15</title>
<path fill="none" stroke="#56d87b" stroke-width="2" d="M562,-180C562,-180 413,-180 413,-180 407,-180 401,-174 401,-168 401,-168 401,-156 401,-156 401,-150 407,-144 413,-144 413,-144 562,-144 562,-144 568,-144 574,-150 574,-156 574,-156 574,-168 574,-168 574,-174 568,-180 562,-180"/>
<text text-anchor="middle" x="487.5" y="-159.5" font-family="sans" font-size="10.00">sintax_to_krona_transformation</text>
</g>
<!-- 8&#45;&gt;15 -->
<g id="edge23" class="edge">
<title>8&#45;&gt;15</title>
<path fill="none" stroke="grey" stroke-width="2" d="M399.75,-216.41C414.88,-207.2 433.92,-195.61 450.39,-185.59"/>
<polygon fill="grey" stroke="grey" stroke-width="2" points="452.52,-188.39 459.24,-180.2 448.88,-182.41 452.52,-188.39"/>
</g>
<!-- 9 -->
<g id="node10" class="node">
<title>9</title>
<path fill="none" stroke="#68d856" stroke-width="2" d="M492.5,-108C492.5,-108 412.5,-108 412.5,-108 406.5,-108 400.5,-102 400.5,-96 400.5,-96 400.5,-84 400.5,-84 400.5,-78 406.5,-72 412.5,-72 412.5,-72 492.5,-72 492.5,-72 498.5,-72 504.5,-78 504.5,-84 504.5,-84 504.5,-96 504.5,-96 504.5,-102 498.5,-108 492.5,-108"/>
<text text-anchor="middle" x="452.5" y="-87.5" font-family="sans" font-size="10.00">sintax_krona_plot</text>
</g>
<!-- 9&#45;&gt;0 -->
<g id="edge6" class="edge">
<title>9&#45;&gt;0</title>
<path fill="none" stroke="grey" stroke-width="2" d="M424.37,-71.88C408.99,-62.52 389.79,-50.83 373.36,-40.83"/>
<polygon fill="grey" stroke="grey" stroke-width="2" points="374.91,-37.67 364.55,-35.47 371.27,-43.65 374.91,-37.67"/>
</g>
<!-- 10 -->
<g id="node11" class="node">
<title>10</title>
<path fill="none" stroke="#59d856" stroke-width="2" d="M679.5,-108C679.5,-108 641.5,-108 641.5,-108 635.5,-108 629.5,-102 629.5,-96 629.5,-96 629.5,-84 629.5,-84 629.5,-78 635.5,-72 641.5,-72 641.5,-72 679.5,-72 679.5,-72 685.5,-72 691.5,-78 691.5,-84 691.5,-84 691.5,-96 691.5,-96 691.5,-102 685.5,-108 679.5,-108"/>
<text text-anchor="middle" x="660.5" y="-87.5" font-family="sans" font-size="10.00">mlca2tsv</text>
</g>
<!-- 10&#45;&gt;0 -->
<g id="edge8" class="edge">
<title>10&#45;&gt;0</title>
<path fill="none" stroke="grey" stroke-width="2" d="M629.23,-74.64C626.64,-73.68 624.04,-72.78 621.5,-72 535.01,-45.46 429.41,-30.01 374.57,-23.19"/>
<polygon fill="grey" stroke="grey" stroke-width="2" points="374.96,-19.72 364.61,-21.98 374.12,-26.66 374.96,-19.72"/>
</g>
<!-- 11 -->
<g id="node12" class="node">
<title>11</title>
<path fill="none" stroke="#80d856" stroke-width="2" d="M371.5,-324C371.5,-324 273.5,-324 273.5,-324 267.5,-324 261.5,-318 261.5,-312 261.5,-312 261.5,-300 261.5,-300 261.5,-294 267.5,-288 273.5,-288 273.5,-288 371.5,-288 371.5,-288 377.5,-288 383.5,-294 383.5,-300 383.5,-300 383.5,-312 383.5,-312 383.5,-318 377.5,-324 371.5,-324"/>
<text text-anchor="middle" x="322.5" y="-303.5" font-family="sans" font-size="10.00">vsearch_rereplication</text>
</g>
<!-- 11&#45;&gt;1 -->
<g id="edge11" class="edge">
<title>11&#45;&gt;1</title>
<path fill="none" stroke="grey" stroke-width="2" d="M310.14,-287.7C304.27,-279.47 297.13,-269.48 290.66,-260.42"/>
<polygon fill="grey" stroke="grey" stroke-width="2" points="293.38,-258.21 284.72,-252.1 287.68,-262.28 293.38,-258.21"/>
</g>
<!-- 11&#45;&gt;8 -->
<g id="edge16" class="edge">
<title>11&#45;&gt;8</title>
<path fill="none" stroke="grey" stroke-width="2" d="M334.86,-287.7C340.73,-279.47 347.87,-269.48 354.34,-260.42"/>
<polygon fill="grey" stroke="grey" stroke-width="2" points="357.32,-262.28 360.28,-252.1 351.62,-258.21 357.32,-262.28"/>
</g>
<!-- 12&#45;&gt;3 -->
<g id="edge12" class="edge">
<title>12&#45;&gt;3</title>
<path fill="none" stroke="grey" stroke-width="2" d="M107.5,-719.87C107.5,-695.67 107.5,-651.21 107.5,-622.39"/>
<polygon fill="grey" stroke="grey" stroke-width="2" points="111,-622.19 107.5,-612.19 104,-622.19 111,-622.19"/>
</g>
<!-- 23 -->
<g id="node24" class="node">
<title>23</title>
<path fill="none" stroke="#d86e56" stroke-width="2" d="M268.5,-684C268.5,-684 206.5,-684 206.5,-684 200.5,-684 194.5,-678 194.5,-672 194.5,-672 194.5,-660 194.5,-660 194.5,-654 200.5,-648 206.5,-648 206.5,-648 268.5,-648 268.5,-648 274.5,-648 280.5,-654 280.5,-660 280.5,-660 280.5,-672 280.5,-672 280.5,-678 274.5,-684 268.5,-684"/>
<text text-anchor="middle" x="237.5" y="-663.5" font-family="sans" font-size="10.00">fastq_to_fasta</text>
</g>
<!-- 12&#45;&gt;23 -->
<g id="edge31" class="edge">
<title>12&#45;&gt;23</title>
<path fill="none" stroke="grey" stroke-width="2" d="M139.3,-719.88C156.61,-710.55 178.22,-698.92 196.76,-688.94"/>
<polygon fill="grey" stroke="grey" stroke-width="2" points="198.43,-692.01 205.58,-684.19 195.11,-685.85 198.43,-692.01"/>
</g>
<!-- 13&#45;&gt;5 -->
<g id="edge13" class="edge">
<title>13&#45;&gt;5</title>
<path fill="none" stroke="grey" stroke-width="2" d="M297.24,-143.7C297.57,-135.98 297.97,-126.71 298.34,-118.11"/>
<polygon fill="grey" stroke="grey" stroke-width="2" points="301.84,-118.25 298.77,-108.1 294.84,-117.95 301.84,-118.25"/>
</g>
<!-- 14 -->
<g id="node15" class="node">
<title>14</title>
<path fill="none" stroke="#8fd856" stroke-width="2" d="M674.5,-180C674.5,-180 604.5,-180 604.5,-180 598.5,-180 592.5,-174 592.5,-168 592.5,-168 592.5,-156 592.5,-156 592.5,-150 598.5,-144 604.5,-144 604.5,-144 674.5,-144 674.5,-144 680.5,-144 686.5,-150 686.5,-156 686.5,-156 686.5,-168 686.5,-168 686.5,-174 680.5,-180 674.5,-180"/>
<text text-anchor="middle" x="639.5" y="-159.5" font-family="sans" font-size="10.00">mlca2kronatext</text>
</g>
<!-- 14&#45;&gt;7 -->
<g id="edge15" class="edge">
<title>14&#45;&gt;7</title>
<path fill="none" stroke="grey" stroke-width="2" d="M621.7,-143.7C612.9,-135.14 602.12,-124.66 592.5,-115.3"/>
<polygon fill="grey" stroke="grey" stroke-width="2" points="594.7,-112.57 585.09,-108.1 589.82,-117.58 594.7,-112.57"/>
</g>
<!-- 15&#45;&gt;9 -->
<g id="edge17" class="edge">
<title>15&#45;&gt;9</title>
<path fill="none" stroke="grey" stroke-width="2" d="M478.85,-143.7C474.86,-135.73 470.05,-126.1 465.63,-117.26"/>
<polygon fill="grey" stroke="grey" stroke-width="2" points="468.65,-115.48 461.05,-108.1 462.39,-118.61 468.65,-115.48"/>
</g>
<!-- 16 -->
<g id="node17" class="node">
<title>16</title>
<path fill="none" stroke="#b6d856" stroke-width="2" d="M808,-180C808,-180 717,-180 717,-180 711,-180 705,-174 705,-168 705,-168 705,-156 705,-156 705,-150 711,-144 717,-144 717,-144 808,-144 808,-144 814,-144 820,-150 820,-156 820,-156 820,-168 820,-168 820,-174 814,-180 808,-180"/>
<text text-anchor="middle" x="762.5" y="-159.5" font-family="sans" font-size="10.00">mlca2tsv_transform</text>
</g>
<!-- 16&#45;&gt;10 -->
<g id="edge18" class="edge">
<title>16&#45;&gt;10</title>
<path fill="none" stroke="grey" stroke-width="2" d="M737.55,-143.88C724.46,-134.89 708.24,-123.76 694.06,-114.03"/>
<polygon fill="grey" stroke="grey" stroke-width="2" points="695.77,-110.96 685.55,-108.19 691.81,-116.73 695.77,-110.96"/>
</g>
<!-- 17 -->
<g id="node18" class="node">
<title>17</title>
<path fill="none" stroke="#d8bc56" stroke-width="2" d="M380,-468C380,-468 265,-468 265,-468 259,-468 253,-462 253,-456 253,-456 253,-444 253,-444 253,-438 259,-432 265,-432 265,-432 380,-432 380,-432 386,-432 392,-438 392,-444 392,-444 392,-456 392,-456 392,-462 386,-468 380,-468"/>
<text text-anchor="middle" x="322.5" y="-447.5" font-family="sans" font-size="10.00">vsearch_dechimerisation</text>
</g>
<!-- 17&#45;&gt;11 -->
<g id="edge19" class="edge">
<title>17&#45;&gt;11</title>
<path fill="none" stroke="grey" stroke-width="2" d="M322.5,-431.87C322.5,-407.67 322.5,-363.21 322.5,-334.39"/>
<polygon fill="grey" stroke="grey" stroke-width="2" points="326,-334.19 322.5,-324.19 319,-334.19 326,-334.19"/>
</g>
<!-- 22 -->
<g id="node23" class="node">
<title>22</title>
<path fill="none" stroke="#5692d8" stroke-width="2" d="M548.5,-396C548.5,-396 518.5,-396 518.5,-396 512.5,-396 506.5,-390 506.5,-384 506.5,-384 506.5,-372 506.5,-372 506.5,-366 512.5,-360 518.5,-360 518.5,-360 548.5,-360 548.5,-360 554.5,-360 560.5,-366 560.5,-372 560.5,-372 560.5,-384 560.5,-384 560.5,-390 554.5,-396 548.5,-396"/>
<text text-anchor="middle" x="533.5" y="-375.5" font-family="sans" font-size="10.00">blastn</text>
</g>
<!-- 17&#45;&gt;22 -->
<g id="edge30" class="edge">
<title>17&#45;&gt;22</title>
<path fill="none" stroke="grey" stroke-width="2" d="M373.85,-431.97C411.93,-419.33 462.93,-402.41 496.93,-391.13"/>
<polygon fill="grey" stroke="grey" stroke-width="2" points="498.09,-394.44 506.48,-387.97 495.88,-387.79 498.09,-394.44"/>
</g>
<!-- 18 -->
<g id="node19" class="node">
<title>18</title>
<path fill="none" stroke="#d85656" stroke-width="2" d="M654.5,-252C654.5,-252 624.5,-252 624.5,-252 618.5,-252 612.5,-246 612.5,-240 612.5,-240 612.5,-228 612.5,-228 612.5,-222 618.5,-216 624.5,-216 624.5,-216 654.5,-216 654.5,-216 660.5,-216 666.5,-222 666.5,-228 666.5,-228 666.5,-240 666.5,-240 666.5,-246 660.5,-252 654.5,-252"/>
<text text-anchor="middle" x="639.5" y="-231.5" font-family="sans" font-size="10.00">mlca</text>
</g>
<!-- 18&#45;&gt;14 -->
<g id="edge22" class="edge">
<title>18&#45;&gt;14</title>
<path fill="none" stroke="grey" stroke-width="2" d="M639.5,-215.7C639.5,-207.98 639.5,-198.71 639.5,-190.11"/>
<polygon fill="grey" stroke="grey" stroke-width="2" points="643,-190.1 639.5,-180.1 636,-190.1 643,-190.1"/>
</g>
<!-- 18&#45;&gt;16 -->
<g id="edge24" class="edge">
<title>18&#45;&gt;16</title>
<path fill="none" stroke="grey" stroke-width="2" d="M666.8,-217.46C683.46,-207.98 705.04,-195.7 723.49,-185.2"/>
<polygon fill="grey" stroke="grey" stroke-width="2" points="725.3,-188.2 732.26,-180.21 721.84,-182.12 725.3,-188.2"/>
</g>
<!-- 19 -->
<g id="node20" class="node">
<title>19</title>
<path fill="none" stroke="#56d8d0" stroke-width="2" d="M352,-540C352,-540 269,-540 269,-540 263,-540 257,-534 257,-528 257,-528 257,-516 257,-516 257,-510 263,-504 269,-504 269,-504 352,-504 352,-504 358,-504 364,-510 364,-516 364,-516 364,-528 364,-528 364,-534 358,-540 352,-540"/>
<text text-anchor="middle" x="310.5" y="-519.5" font-family="sans" font-size="10.00">vsearch_denoising</text>
</g>
<!-- 19&#45;&gt;17 -->
<g id="edge25" class="edge">
<title>19&#45;&gt;17</title>
<path fill="none" stroke="grey" stroke-width="2" d="M313.47,-503.7C314.79,-495.98 316.38,-486.71 317.85,-478.11"/>
<polygon fill="grey" stroke="grey" stroke-width="2" points="321.33,-478.55 319.57,-468.1 314.43,-477.37 321.33,-478.55"/>
</g>
<!-- 20 -->
<g id="node21" class="node">
<title>20</title>
<path fill="none" stroke="#56d86b" stroke-width="2" d="M613,-324C613,-324 560,-324 560,-324 554,-324 548,-318 548,-312 548,-312 548,-300 548,-300 548,-294 554,-288 560,-288 560,-288 613,-288 613,-288 619,-288 625,-294 625,-300 625,-300 625,-312 625,-312 625,-318 619,-324 613,-324"/>
<text text-anchor="middle" x="586.5" y="-303.5" font-family="sans" font-size="10.00">tax_to_blast</text>
</g>
<!-- 20&#45;&gt;18 -->
<g id="edge26" class="edge">
<title>20&#45;&gt;18</title>
<path fill="none" stroke="grey" stroke-width="2" d="M599.6,-287.7C605.89,-279.39 613.55,-269.28 620.46,-260.14"/>
<polygon fill="grey" stroke="grey" stroke-width="2" points="623.3,-262.19 626.55,-252.1 617.72,-257.96 623.3,-262.19"/>
</g>
<!-- 21 -->
<g id="node22" class="node">
<title>21</title>
<path fill="none" stroke="#56d892" stroke-width="2" d="M329.5,-612C329.5,-612 229.5,-612 229.5,-612 223.5,-612 217.5,-606 217.5,-600 217.5,-600 217.5,-588 217.5,-588 217.5,-582 223.5,-576 229.5,-576 229.5,-576 329.5,-576 329.5,-576 335.5,-576 341.5,-582 341.5,-588 341.5,-588 341.5,-600 341.5,-600 341.5,-606 335.5,-612 329.5,-612"/>
<text text-anchor="middle" x="279.5" y="-591.5" font-family="sans" font-size="10.00">vsearch_dereplication</text>
</g>
<!-- 21&#45;&gt;19 -->
<g id="edge27" class="edge">
<title>21&#45;&gt;19</title>
<path fill="none" stroke="grey" stroke-width="2" d="M287.16,-575.7C290.69,-567.73 294.96,-558.1 298.87,-549.26"/>
<polygon fill="grey" stroke="grey" stroke-width="2" points="302.08,-550.67 302.93,-540.1 295.68,-547.83 302.08,-550.67"/>
</g>
<!-- 22&#45;&gt;20 -->
<g id="edge28" class="edge">
<title>22&#45;&gt;20</title>
<path fill="none" stroke="grey" stroke-width="2" d="M546.6,-359.7C552.89,-351.39 560.55,-341.28 567.46,-332.14"/>
<polygon fill="grey" stroke="grey" stroke-width="2" points="570.3,-334.19 573.55,-324.1 564.72,-329.96 570.3,-334.19"/>
</g>
<!-- 23&#45;&gt;21 -->
<g id="edge29" class="edge">
<title>23&#45;&gt;21</title>
<path fill="none" stroke="grey" stroke-width="2" d="M247.88,-647.7C252.76,-639.56 258.69,-629.69 264.08,-620.7"/>
<polygon fill="grey" stroke="grey" stroke-width="2" points="267.09,-622.48 269.24,-612.1 261.09,-618.88 267.09,-622.48"/>
</g>
</g>
</svg>
