<?xml version="1.0" encoding="UTF-8" standalone="no"?>
<!DOCTYPE svg PUBLIC "-//W3C//DTD SVG 1.1//EN"
 "http://www.w3.org/Graphics/SVG/1.1/DTD/svg11.dtd">
<!-- Generated by graphviz version 2.42.3 (20191010.1750)
 -->
<!-- Title: snakemake_dag Pages: 1 -->
<svg width="620pt" height="836pt"
 viewBox="0.00 0.00 620.00 836.00" xmlns="http://www.w3.org/2000/svg" xmlns:xlink="http://www.w3.org/1999/xlink">
<g id="graph0" class="graph" transform="scale(1 1) rotate(0) translate(4 832)">
<title>snakemake_dag</title>
<polygon fill="white" stroke="transparent" points="-4,4 -4,-832 616,-832 616,4 -4,4"/>
<!-- 0 -->
<g id="node1" class="node">
<title>0</title>
<path fill="none" stroke="#56d88a" stroke-width="2" d="M258.5,-36C258.5,-36 228.5,-36 228.5,-36 222.5,-36 216.5,-30 216.5,-24 216.5,-24 216.5,-12 216.5,-12 216.5,-6 222.5,0 228.5,0 228.5,0 258.5,0 258.5,0 264.5,0 270.5,-6 270.5,-12 270.5,-12 270.5,-24 270.5,-24 270.5,-30 264.5,-36 258.5,-36"/>
<text text-anchor="middle" x="243.5" y="-15.5" font-family="sans" font-size="10.00">all</text>
</g>
<!-- 1 -->
<g id="node2" class="node">
<title>1</title>
<path fill="none" stroke="#88d856" stroke-width="2" d="M115,-828C115,-828 12,-828 12,-828 6,-828 0,-822 0,-816 0,-816 0,-804 0,-804 0,-798 6,-792 12,-792 12,-792 115,-792 115,-792 121,-792 127,-798 127,-804 127,-804 127,-816 127,-816 127,-822 121,-828 115,-828"/>
<text text-anchor="middle" x="63.5" y="-807.5" font-family="sans" font-size="10.00">fastp_trim_and_merge</text>
</g>
<!-- 1&#45;&gt;0 -->
<g id="edge1" class="edge">
<title>1&#45;&gt;0</title>
<path fill="none" stroke="grey" stroke-width="2" d="M54.38,-791.61C41.5,-765.36 19.5,-713.71 19.5,-667 19.5,-667 19.5,-667 19.5,-161 19.5,-114.73 37.06,-100.51 73.5,-72 112.39,-41.57 168.94,-28.48 205.96,-22.94"/>
<polygon fill="grey" stroke="grey" stroke-width="2" points="206.89,-26.34 216.32,-21.51 205.93,-19.41 206.89,-26.34"/>
</g>
<!-- 8 -->
<g id="node9" class="node">
<title>8</title>
<path fill="none" stroke="#9fd856" stroke-width="2" d="M134.5,-756C134.5,-756 80.5,-756 80.5,-756 74.5,-756 68.5,-750 68.5,-744 68.5,-744 68.5,-732 68.5,-732 68.5,-726 74.5,-720 80.5,-720 80.5,-720 134.5,-720 134.5,-720 140.5,-720 146.5,-726 146.5,-732 146.5,-732 146.5,-744 146.5,-744 146.5,-750 140.5,-756 134.5,-756"/>
<text text-anchor="middle" x="107.5" y="-735.5" font-family="sans" font-size="10.00">merge_fastp</text>
</g>
<!-- 1&#45;&gt;8 -->
<g id="edge14" class="edge">
<title>1&#45;&gt;8</title>
<path fill="none" stroke="grey" stroke-width="2" d="M74.38,-791.7C79.49,-783.56 85.7,-773.69 91.34,-764.7"/>
<polygon fill="grey" stroke="grey" stroke-width="2" points="94.39,-766.43 96.75,-756.1 88.46,-762.71 94.39,-766.43"/>
</g>
<!-- 2 -->
<g id="node3" class="node">
<title>2</title>
<path fill="none" stroke="#78d856" stroke-width="2" d="M155,-612C155,-612 60,-612 60,-612 54,-612 48,-606 48,-600 48,-600 48,-588 48,-588 48,-582 54,-576 60,-576 60,-576 155,-576 155,-576 161,-576 167,-582 167,-588 167,-588 167,-600 167,-600 167,-606 161,-612 155,-612"/>
<text text-anchor="middle" x="107.5" y="-591.5" font-family="sans" font-size="10.00">vsearch_fastq_report</text>
</g>
<!-- 2&#45;&gt;0 -->
<g id="edge3" class="edge">
<title>2&#45;&gt;0</title>
<path fill="none" stroke="grey" stroke-width="2" d="M97.14,-575.76C82.49,-549.7 57.5,-498.31 57.5,-451 57.5,-451 57.5,-451 57.5,-161 57.5,-86.61 152.65,-45.99 206.84,-28.89"/>
<polygon fill="grey" stroke="grey" stroke-width="2" points="207.91,-32.23 216.45,-25.97 205.87,-25.53 207.91,-32.23"/>
</g>
<!-- 3 -->
<g id="node4" class="node">
<title>3</title>
<path fill="none" stroke="#d8bc56" stroke-width="2" d="M600,-108C600,-108 555,-108 555,-108 549,-108 543,-102 543,-96 543,-96 543,-84 543,-84 543,-78 549,-72 555,-72 555,-72 600,-72 600,-72 606,-72 612,-78 612,-84 612,-84 612,-96 612,-96 612,-102 606,-108 600,-108"/>
<text text-anchor="middle" x="577.5" y="-87.5" font-family="sans" font-size="10.00">conda_env</text>
</g>
<!-- 3&#45;&gt;0 -->
<g id="edge6" class="edge">
<title>3&#45;&gt;0</title>
<path fill="none" stroke="grey" stroke-width="2" d="M542.64,-74.85C539.57,-73.81 536.5,-72.84 533.5,-72 444.41,-46.89 336.47,-30.81 280.77,-23.53"/>
<polygon fill="grey" stroke="grey" stroke-width="2" points="281.04,-20.03 270.67,-22.23 280.15,-26.98 281.04,-20.03"/>
</g>
<!-- 4 -->
<g id="node5" class="node">
<title>4</title>
<path fill="none" stroke="#56d8b1" stroke-width="2" d="M273,-108C273,-108 214,-108 214,-108 208,-108 202,-102 202,-96 202,-96 202,-84 202,-84 202,-78 208,-72 214,-72 214,-72 273,-72 273,-72 279,-72 285,-78 285,-84 285,-84 285,-96 285,-96 285,-102 279,-108 273,-108"/>
<text text-anchor="middle" x="243.5" y="-87.5" font-family="sans" font-size="10.00">biom_convert</text>
</g>
<!-- 4&#45;&gt;0 -->
<g id="edge4" class="edge">
<title>4&#45;&gt;0</title>
<path fill="none" stroke="grey" stroke-width="2" d="M243.5,-71.7C243.5,-63.98 243.5,-54.71 243.5,-46.11"/>
<polygon fill="grey" stroke="grey" stroke-width="2" points="247,-46.1 243.5,-36.1 240,-46.1 247,-46.1"/>
</g>
<!-- 5 -->
<g id="node6" class="node">
<title>5</title>
<path fill="none" stroke="#d87d56" stroke-width="2" d="M177.5,-180C177.5,-180 97.5,-180 97.5,-180 91.5,-180 85.5,-174 85.5,-168 85.5,-168 85.5,-156 85.5,-156 85.5,-150 91.5,-144 97.5,-144 97.5,-144 177.5,-144 177.5,-144 183.5,-144 189.5,-150 189.5,-156 189.5,-156 189.5,-168 189.5,-168 189.5,-174 183.5,-180 177.5,-180"/>
<text text-anchor="middle" x="137.5" y="-159.5" font-family="sans" font-size="10.00">kraken_to_krona2</text>
</g>
<!-- 5&#45;&gt;0 -->
<g id="edge5" class="edge">
<title>5&#45;&gt;0</title>
<path fill="none" stroke="grey" stroke-width="2" d="M146.63,-143.9C156.8,-125.44 174.24,-95.54 192.5,-72 200.13,-62.17 209.34,-52.14 217.82,-43.49"/>
<polygon fill="grey" stroke="grey" stroke-width="2" points="220.43,-45.83 225.03,-36.29 215.49,-40.88 220.43,-45.83"/>
</g>
<!-- 6 -->
<g id="node7" class="node">
<title>6</title>
<path fill="none" stroke="#5692d8" stroke-width="2" d="M513,-108C513,-108 448,-108 448,-108 442,-108 436,-102 436,-96 436,-96 436,-84 436,-84 436,-78 442,-72 448,-72 448,-72 513,-72 513,-72 519,-72 525,-78 525,-84 525,-84 525,-96 525,-96 525,-102 519,-108 513,-108"/>
<text text-anchor="middle" x="480.5" y="-87.5" font-family="sans" font-size="10.00">mlca_to_krona</text>
</g>
<!-- 6&#45;&gt;0 -->
<g id="edge2" class="edge">
<title>6&#45;&gt;0</title>
<path fill="none" stroke="grey" stroke-width="2" d="M435.74,-74.82C432.61,-73.86 429.51,-72.91 426.5,-72 376,-56.74 317.39,-39.92 280.37,-29.41"/>
<polygon fill="grey" stroke="grey" stroke-width="2" points="281.11,-25.98 270.53,-26.62 279.2,-32.71 281.11,-25.98"/>
</g>
<!-- 7 -->
<g id="node8" class="node">
<title>7</title>
<path fill="none" stroke="#b6d856" stroke-width="2" d="M405.5,-108C405.5,-108 315.5,-108 315.5,-108 309.5,-108 303.5,-102 303.5,-96 303.5,-96 303.5,-84 303.5,-84 303.5,-78 309.5,-72 315.5,-72 315.5,-72 405.5,-72 405.5,-72 411.5,-72 417.5,-78 417.5,-84 417.5,-84 417.5,-96 417.5,-96 417.5,-102 411.5,-108 405.5,-108"/>
<text text-anchor="middle" x="360.5" y="-87.5" font-family="sans" font-size="10.00">sintaxtext_to_krona</text>
</g>
<!-- 7&#45;&gt;0 -->
<g id="edge7" class="edge">
<title>7&#45;&gt;0</title>
<path fill="none" stroke="grey" stroke-width="2" d="M331.88,-71.88C316.12,-62.45 296.42,-50.66 279.61,-40.61"/>
<polygon fill="grey" stroke="grey" stroke-width="2" points="281,-37.36 270.62,-35.23 277.4,-43.36 281,-37.36"/>
</g>
<!-- 8&#45;&gt;2 -->
<g id="edge8" class="edge">
<title>8&#45;&gt;2</title>
<path fill="none" stroke="grey" stroke-width="2" d="M107.5,-719.87C107.5,-695.67 107.5,-651.21 107.5,-622.39"/>
<polygon fill="grey" stroke="grey" stroke-width="2" points="111,-622.19 107.5,-612.19 104,-622.19 111,-622.19"/>
</g>
<!-- 22 -->
<g id="node23" class="node">
<title>22</title>
<path fill="none" stroke="#d8d356" stroke-width="2" d="M247.5,-684C247.5,-684 185.5,-684 185.5,-684 179.5,-684 173.5,-678 173.5,-672 173.5,-672 173.5,-660 173.5,-660 173.5,-654 179.5,-648 185.5,-648 185.5,-648 247.5,-648 247.5,-648 253.5,-648 259.5,-654 259.5,-660 259.5,-660 259.5,-672 259.5,-672 259.5,-678 253.5,-684 247.5,-684"/>
<text text-anchor="middle" x="216.5" y="-663.5" font-family="sans" font-size="10.00">fastq_to_fasta</text>
</g>
<!-- 8&#45;&gt;22 -->
<g id="edge27" class="edge">
<title>8&#45;&gt;22</title>
<path fill="none" stroke="grey" stroke-width="2" d="M134.16,-719.88C148.28,-710.81 165.81,-699.55 181.06,-689.76"/>
<polygon fill="grey" stroke="grey" stroke-width="2" points="183.21,-692.54 189.73,-684.19 179.43,-686.65 183.21,-692.54"/>
</g>
<!-- 9 -->
<g id="node10" class="node">
<title>9</title>
<path fill="none" stroke="#61d856" stroke-width="2" d="M291,-180C291,-180 220,-180 220,-180 214,-180 208,-174 208,-168 208,-168 208,-156 208,-156 208,-150 214,-144 220,-144 220,-144 291,-144 291,-144 297,-144 303,-150 303,-156 303,-156 303,-168 303,-168 303,-174 297,-180 291,-180"/>
<text text-anchor="middle" x="255.5" y="-159.5" font-family="sans" font-size="10.00">kraken_to_biom</text>
</g>
<!-- 9&#45;&gt;4 -->
<g id="edge9" class="edge">
<title>9&#45;&gt;4</title>
<path fill="none" stroke="grey" stroke-width="2" d="M252.53,-143.7C251.21,-135.98 249.62,-126.71 248.15,-118.11"/>
<polygon fill="grey" stroke="grey" stroke-width="2" points="251.57,-117.37 246.43,-108.1 244.67,-118.55 251.57,-117.37"/>
</g>
<!-- 10 -->
<g id="node11" class="node">
<title>10</title>
<path fill="none" stroke="#56d873" stroke-width="2" d="M271.5,-252C271.5,-252 239.5,-252 239.5,-252 233.5,-252 227.5,-246 227.5,-240 227.5,-240 227.5,-228 227.5,-228 227.5,-222 233.5,-216 239.5,-216 239.5,-216 271.5,-216 271.5,-216 277.5,-216 283.5,-222 283.5,-228 283.5,-228 283.5,-240 283.5,-240 283.5,-246 277.5,-252 271.5,-252"/>
<text text-anchor="middle" x="255.5" y="-231.5" font-family="sans" font-size="10.00">kraken2</text>
</g>
<!-- 10&#45;&gt;5 -->
<g id="edge10" class="edge">
<title>10&#45;&gt;5</title>
<path fill="none" stroke="grey" stroke-width="2" d="M227.24,-216.23C211.7,-207.02 192.23,-195.47 175.39,-185.48"/>
<polygon fill="grey" stroke="grey" stroke-width="2" points="176.74,-182.21 166.35,-180.12 173.17,-188.23 176.74,-182.21"/>
</g>
<!-- 10&#45;&gt;9 -->
<g id="edge15" class="edge">
<title>10&#45;&gt;9</title>
<path fill="none" stroke="grey" stroke-width="2" d="M255.5,-215.7C255.5,-207.98 255.5,-198.71 255.5,-190.11"/>
<polygon fill="grey" stroke="grey" stroke-width="2" points="259,-190.1 255.5,-180.1 252,-190.1 259,-190.1"/>
</g>
<!-- 11 -->
<g id="node12" class="node">
<title>11</title>
<path fill="none" stroke="#56d863" stroke-width="2" d="M166,-252C166,-252 109,-252 109,-252 103,-252 97,-246 97,-240 97,-240 97,-228 97,-228 97,-222 103,-216 109,-216 109,-216 166,-216 166,-216 172,-216 178,-222 178,-228 178,-228 178,-240 178,-240 178,-246 172,-252 166,-252"/>
<text text-anchor="middle" x="137.5" y="-231.5" font-family="sans" font-size="10.00">kt_taxonomy</text>
</g>
<!-- 11&#45;&gt;5 -->
<g id="edge11" class="edge">
<title>11&#45;&gt;5</title>
<path fill="none" stroke="grey" stroke-width="2" d="M137.5,-215.7C137.5,-207.98 137.5,-198.71 137.5,-190.11"/>
<polygon fill="grey" stroke="grey" stroke-width="2" points="141,-190.1 137.5,-180.1 134,-190.1 141,-190.1"/>
</g>
<!-- 12 -->
<g id="node13" class="node">
<title>12</title>
<path fill="none" stroke="#d8ac56" stroke-width="2" d="M535.5,-180C535.5,-180 465.5,-180 465.5,-180 459.5,-180 453.5,-174 453.5,-168 453.5,-168 453.5,-156 453.5,-156 453.5,-150 459.5,-144 465.5,-144 465.5,-144 535.5,-144 535.5,-144 541.5,-144 547.5,-150 547.5,-156 547.5,-156 547.5,-168 547.5,-168 547.5,-174 541.5,-180 535.5,-180"/>
<text text-anchor="middle" x="500.5" y="-159.5" font-family="sans" font-size="10.00">mlca2kronatext</text>
</g>
<!-- 12&#45;&gt;6 -->
<g id="edge12" class="edge">
<title>12&#45;&gt;6</title>
<path fill="none" stroke="grey" stroke-width="2" d="M495.56,-143.7C493.33,-135.9 490.65,-126.51 488.17,-117.83"/>
<polygon fill="grey" stroke="grey" stroke-width="2" points="491.5,-116.76 485.39,-108.1 484.77,-118.68 491.5,-116.76"/>
</g>
<!-- 13 -->
<g id="node14" class="node">
<title>13</title>
<path fill="none" stroke="#56d8c9" stroke-width="2" d="M423.5,-180C423.5,-180 333.5,-180 333.5,-180 327.5,-180 321.5,-174 321.5,-168 321.5,-168 321.5,-156 321.5,-156 321.5,-150 327.5,-144 333.5,-144 333.5,-144 423.5,-144 423.5,-144 429.5,-144 435.5,-150 435.5,-156 435.5,-156 435.5,-168 435.5,-168 435.5,-174 429.5,-180 423.5,-180"/>
<text text-anchor="middle" x="378.5" y="-159.5" font-family="sans" font-size="10.00">sintax_to_kronatext</text>
</g>
<!-- 13&#45;&gt;7 -->
<g id="edge13" class="edge">
<title>13&#45;&gt;7</title>
<path fill="none" stroke="grey" stroke-width="2" d="M374.05,-143.7C372.05,-135.9 369.63,-126.51 367.4,-117.83"/>
<polygon fill="grey" stroke="grey" stroke-width="2" points="370.78,-116.92 364.9,-108.1 364,-118.66 370.78,-116.92"/>
</g>
<!-- 14 -->
<g id="node15" class="node">
<title>14</title>
<path fill="none" stroke="#d89556" stroke-width="2" d="M342.5,-324C342.5,-324 244.5,-324 244.5,-324 238.5,-324 232.5,-318 232.5,-312 232.5,-312 232.5,-300 232.5,-300 232.5,-294 238.5,-288 244.5,-288 244.5,-288 342.5,-288 342.5,-288 348.5,-288 354.5,-294 354.5,-300 354.5,-300 354.5,-312 354.5,-312 354.5,-318 348.5,-324 342.5,-324"/>
<text text-anchor="middle" x="293.5" y="-303.5" font-family="sans" font-size="10.00">vsearch_rereplication</text>
</g>
<!-- 14&#45;&gt;10 -->
<g id="edge16" class="edge">
<title>14&#45;&gt;10</title>
<path fill="none" stroke="grey" stroke-width="2" d="M284.11,-287.7C279.74,-279.64 274.44,-269.89 269.6,-260.98"/>
<polygon fill="grey" stroke="grey" stroke-width="2" points="272.63,-259.22 264.79,-252.1 266.48,-262.56 272.63,-259.22"/>
</g>
<!-- 16 -->
<g id="node17" class="node">
<title>16</title>
<path fill="none" stroke="#c6d856" stroke-width="2" d="M368.5,-252C368.5,-252 338.5,-252 338.5,-252 332.5,-252 326.5,-246 326.5,-240 326.5,-240 326.5,-228 326.5,-228 326.5,-222 332.5,-216 338.5,-216 338.5,-216 368.5,-216 368.5,-216 374.5,-216 380.5,-222 380.5,-228 380.5,-228 380.5,-240 380.5,-240 380.5,-246 374.5,-252 368.5,-252"/>
<text text-anchor="middle" x="353.5" y="-231.5" font-family="sans" font-size="10.00">sintax</text>
</g>
<!-- 14&#45;&gt;16 -->
<g id="edge21" class="edge">
<title>14&#45;&gt;16</title>
<path fill="none" stroke="grey" stroke-width="2" d="M308.33,-287.7C315.52,-279.3 324.3,-269.07 332.19,-259.86"/>
<polygon fill="grey" stroke="grey" stroke-width="2" points="334.99,-261.97 338.84,-252.1 329.67,-257.42 334.99,-261.97"/>
</g>
<!-- 15 -->
<g id="node16" class="node">
<title>15</title>
<path fill="none" stroke="#566bd8" stroke-width="2" d="M477.5,-252C477.5,-252 447.5,-252 447.5,-252 441.5,-252 435.5,-246 435.5,-240 435.5,-240 435.5,-228 435.5,-228 435.5,-222 441.5,-216 447.5,-216 447.5,-216 477.5,-216 477.5,-216 483.5,-216 489.5,-222 489.5,-228 489.5,-228 489.5,-240 489.5,-240 489.5,-246 483.5,-252 477.5,-252"/>
<text text-anchor="middle" x="462.5" y="-231.5" font-family="sans" font-size="10.00">mlca</text>
</g>
<!-- 15&#45;&gt;12 -->
<g id="edge17" class="edge">
<title>15&#45;&gt;12</title>
<path fill="none" stroke="grey" stroke-width="2" d="M471.89,-215.7C476.26,-207.64 481.56,-197.89 486.4,-188.98"/>
<polygon fill="grey" stroke="grey" stroke-width="2" points="489.52,-190.56 491.21,-180.1 483.37,-187.22 489.52,-190.56"/>
</g>
<!-- 16&#45;&gt;13 -->
<g id="edge18" class="edge">
<title>16&#45;&gt;13</title>
<path fill="none" stroke="grey" stroke-width="2" d="M359.68,-215.7C362.5,-207.81 365.89,-198.3 369.02,-189.55"/>
<polygon fill="grey" stroke="grey" stroke-width="2" points="372.32,-190.7 372.39,-180.1 365.73,-188.34 372.32,-190.7"/>
</g>
<!-- 17 -->
<g id="node18" class="node">
<title>17</title>
<path fill="none" stroke="#56d0d8" stroke-width="2" d="M351,-468C351,-468 236,-468 236,-468 230,-468 224,-462 224,-456 224,-456 224,-444 224,-444 224,-438 230,-432 236,-432 236,-432 351,-432 351,-432 357,-432 363,-438 363,-444 363,-444 363,-456 363,-456 363,-462 357,-468 351,-468"/>
<text text-anchor="middle" x="293.5" y="-447.5" font-family="sans" font-size="10.00">vsearch_dechimerisation</text>
</g>
<!-- 17&#45;&gt;14 -->
<g id="edge19" class="edge">
<title>17&#45;&gt;14</title>
<path fill="none" stroke="grey" stroke-width="2" d="M293.5,-431.87C293.5,-407.67 293.5,-363.21 293.5,-334.39"/>
<polygon fill="grey" stroke="grey" stroke-width="2" points="297,-334.19 293.5,-324.19 290,-334.19 297,-334.19"/>
</g>
<!-- 20 -->
<g id="node21" class="node">
<title>20</title>
<path fill="none" stroke="#d86e56" stroke-width="2" d="M394.5,-396C394.5,-396 364.5,-396 364.5,-396 358.5,-396 352.5,-390 352.5,-384 352.5,-384 352.5,-372 352.5,-372 352.5,-366 358.5,-360 364.5,-360 364.5,-360 394.5,-360 394.5,-360 400.5,-360 406.5,-366 406.5,-372 406.5,-372 406.5,-384 406.5,-384 406.5,-390 400.5,-396 394.5,-396"/>
<text text-anchor="middle" x="379.5" y="-375.5" font-family="sans" font-size="10.00">blastn</text>
</g>
<!-- 17&#45;&gt;20 -->
<g id="edge25" class="edge">
<title>17&#45;&gt;20</title>
<path fill="none" stroke="grey" stroke-width="2" d="M314.76,-431.7C325.59,-422.88 338.92,-412.03 350.66,-402.47"/>
<polygon fill="grey" stroke="grey" stroke-width="2" points="352.94,-405.13 358.49,-396.1 348.52,-399.7 352.94,-405.13"/>
</g>
<!-- 18 -->
<g id="node19" class="node">
<title>18</title>
<path fill="none" stroke="#d85656" stroke-width="2" d="M451,-324C451,-324 398,-324 398,-324 392,-324 386,-318 386,-312 386,-312 386,-300 386,-300 386,-294 392,-288 398,-288 398,-288 451,-288 451,-288 457,-288 463,-294 463,-300 463,-300 463,-312 463,-312 463,-318 457,-324 451,-324"/>
<text text-anchor="middle" x="424.5" y="-303.5" font-family="sans" font-size="10.00">tax_to_blast</text>
</g>
<!-- 18&#45;&gt;15 -->
<g id="edge20" class="edge">
<title>18&#45;&gt;15</title>
<path fill="none" stroke="grey" stroke-width="2" d="M433.89,-287.7C438.26,-279.64 443.56,-269.89 448.4,-260.98"/>
<polygon fill="grey" stroke="grey" stroke-width="2" points="451.52,-262.56 453.21,-252.1 445.37,-259.22 451.52,-262.56"/>
</g>
<!-- 19 -->
<g id="node20" class="node">
<title>19</title>
<path fill="none" stroke="#56a9d8" stroke-width="2" d="M331,-540C331,-540 248,-540 248,-540 242,-540 236,-534 236,-528 236,-528 236,-516 236,-516 236,-510 242,-504 248,-504 248,-504 331,-504 331,-504 337,-504 343,-510 343,-516 343,-516 343,-528 343,-528 343,-534 337,-540 331,-540"/>
<text text-anchor="middle" x="289.5" y="-519.5" font-family="sans" font-size="10.00">vsearch_denoising</text>
</g>
<!-- 19&#45;&gt;17 -->
<g id="edge22" class="edge">
<title>19&#45;&gt;17</title>
<path fill="none" stroke="grey" stroke-width="2" d="M290.49,-503.7C290.93,-495.98 291.46,-486.71 291.95,-478.11"/>
<polygon fill="grey" stroke="grey" stroke-width="2" points="295.45,-478.29 292.52,-468.1 288.46,-477.89 295.45,-478.29"/>
</g>
<!-- 20&#45;&gt;18 -->
<g id="edge23" class="edge">
<title>20&#45;&gt;18</title>
<path fill="none" stroke="grey" stroke-width="2" d="M390.62,-359.7C395.86,-351.56 402.2,-341.69 407.98,-332.7"/>
<polygon fill="grey" stroke="grey" stroke-width="2" points="411.04,-334.41 413.5,-324.1 405.15,-330.62 411.04,-334.41"/>
</g>
<!-- 21 -->
<g id="node22" class="node">
<title>21</title>
<path fill="none" stroke="#5682d8" stroke-width="2" d="M337.5,-612C337.5,-612 237.5,-612 237.5,-612 231.5,-612 225.5,-606 225.5,-600 225.5,-600 225.5,-588 225.5,-588 225.5,-582 231.5,-576 237.5,-576 237.5,-576 337.5,-576 337.5,-576 343.5,-576 349.5,-582 349.5,-588 349.5,-588 349.5,-600 349.5,-600 349.5,-606 343.5,-612 337.5,-612"/>
<text text-anchor="middle" x="287.5" y="-591.5" font-family="sans" font-size="10.00">vsearch_dereplication</text>
</g>
<!-- 21&#45;&gt;19 -->
<g id="edge24" class="edge">
<title>21&#45;&gt;19</title>
<path fill="none" stroke="grey" stroke-width="2" d="M287.99,-575.7C288.21,-567.98 288.48,-558.71 288.73,-550.11"/>
<polygon fill="grey" stroke="grey" stroke-width="2" points="292.22,-550.2 289.01,-540.1 285.23,-550 292.22,-550.2"/>
</g>
<!-- 22&#45;&gt;21 -->
<g id="edge26" class="edge">
<title>22&#45;&gt;21</title>
<path fill="none" stroke="grey" stroke-width="2" d="M234.05,-647.7C242.73,-639.14 253.36,-628.66 262.85,-619.3"/>
<polygon fill="grey" stroke="grey" stroke-width="2" points="265.49,-621.62 270.15,-612.1 260.57,-616.63 265.49,-621.62"/>
</g>
</g>
</svg>
