<?xml version="1.0" encoding="UTF-8" standalone="no"?>
<!DOCTYPE svg PUBLIC "-//W3C//DTD SVG 1.1//EN"
 "http://www.w3.org/Graphics/SVG/1.1/DTD/svg11.dtd">
<!-- Generated by graphviz version 2.40.1 (20161225.0304)
 -->
<!-- Title: snakemake_dag Pages: 1 -->
<svg width="604pt" height="692pt"
 viewBox="0.00 0.00 603.50 692.00" xmlns="http://www.w3.org/2000/svg" xmlns:xlink="http://www.w3.org/1999/xlink">
<g id="graph0" class="graph" transform="scale(1 1) rotate(0) translate(4 688)">
<title>snakemake_dag</title>
<polygon fill="#ffffff" stroke="transparent" points="-4,4 -4,-688 599.5,-688 599.5,4 -4,4"/>
<!-- 0 -->
<g id="node1" class="node">
<title>0</title>
<path fill="none" stroke="#56d8b9" stroke-width="2" d="M235,-36C235,-36 205,-36 205,-36 199,-36 193,-30 193,-24 193,-24 193,-12 193,-12 193,-6 199,0 205,0 205,0 235,0 235,0 241,0 247,-6 247,-12 247,-12 247,-24 247,-24 247,-30 241,-36 235,-36"/>
<text text-anchor="middle" x="220" y="-15.5" font-family="sans" font-size="10.00" fill="#000000">all</text>
</g>
<!-- 1 -->
<g id="node2" class="node">
<title>1</title>
<path fill="none" stroke="#569ad8" stroke-width="2" d="M139.5,-684C139.5,-684 36.5,-684 36.5,-684 30.5,-684 24.5,-678 24.5,-672 24.5,-672 24.5,-660 24.5,-660 24.5,-654 30.5,-648 36.5,-648 36.5,-648 139.5,-648 139.5,-648 145.5,-648 151.5,-654 151.5,-660 151.5,-660 151.5,-672 151.5,-672 151.5,-678 145.5,-684 139.5,-684"/>
<text text-anchor="middle" x="88" y="-663.5" font-family="sans" font-size="10.00" fill="#000000">fastp_trim_and_merge</text>
</g>
<!-- 1&#45;&gt;0 -->
<g id="edge4" class="edge">
<title>1&#45;&gt;0</title>
<path fill="none" stroke="#c0c0c0" stroke-width="2" d="M67.5898,-647.7087C41.5938,-622.291 0,-573.5656 0,-522 0,-522 0,-522 0,-162 0,-118.9187 4.1242,-100.9816 36,-72 57.5717,-52.3869 135.755,-34.3343 182.9881,-24.8876"/>
<polygon fill="#c0c0c0" stroke="#c0c0c0" stroke-width="2" points="183.7131,-28.3122 192.8508,-22.95 182.3636,-21.4435 183.7131,-28.3122"/>
</g>
<!-- 2 -->
<g id="node3" class="node">
<title>2</title>
<path fill="none" stroke="#d89c56" stroke-width="2" d="M135.5,-540C135.5,-540 40.5,-540 40.5,-540 34.5,-540 28.5,-534 28.5,-528 28.5,-528 28.5,-516 28.5,-516 28.5,-510 34.5,-504 40.5,-504 40.5,-504 135.5,-504 135.5,-504 141.5,-504 147.5,-510 147.5,-516 147.5,-516 147.5,-528 147.5,-528 147.5,-534 141.5,-540 135.5,-540"/>
<text text-anchor="middle" x="88" y="-519.5" font-family="sans" font-size="10.00" fill="#000000">vsearch_fastq_report</text>
</g>
<!-- 1&#45;&gt;2 -->
<g id="edge8" class="edge">
<title>1&#45;&gt;2</title>
<path fill="none" stroke="#c0c0c0" stroke-width="2" d="M88,-647.7623C88,-623.201 88,-579.2474 88,-550.3541"/>
<polygon fill="#c0c0c0" stroke="#c0c0c0" stroke-width="2" points="91.5001,-550.0896 88,-540.0896 84.5001,-550.0897 91.5001,-550.0896"/>
</g>
<!-- 20 -->
<g id="node21" class="node">
<title>20</title>
<path fill="none" stroke="#d88556" stroke-width="2" d="M252,-612C252,-612 190,-612 190,-612 184,-612 178,-606 178,-600 178,-600 178,-588 178,-588 178,-582 184,-576 190,-576 190,-576 252,-576 252,-576 258,-576 264,-582 264,-588 264,-588 264,-600 264,-600 264,-606 258,-612 252,-612"/>
<text text-anchor="middle" x="221" y="-591.5" font-family="sans" font-size="10.00" fill="#000000">fastq_to_fasta</text>
</g>
<!-- 1&#45;&gt;20 -->
<g id="edge25" class="edge">
<title>1&#45;&gt;20</title>
<path fill="none" stroke="#c0c0c0" stroke-width="2" d="M121.5615,-647.8314C138.8881,-638.4516 160.2058,-626.9112 178.6536,-616.9244"/>
<polygon fill="#c0c0c0" stroke="#c0c0c0" stroke-width="2" points="180.3214,-620.0015 187.4492,-612.1628 176.9889,-613.8457 180.3214,-620.0015"/>
</g>
<!-- 2&#45;&gt;0 -->
<g id="edge5" class="edge">
<title>2&#45;&gt;0</title>
<path fill="none" stroke="#c0c0c0" stroke-width="2" d="M77.1507,-503.611C62.4453,-476.8991 38,-425.3709 38,-378 38,-378 38,-378 38,-162 38,-120.8223 32.1578,-102.3383 60,-72 76.7562,-53.7416 141.16,-36.0482 182.9715,-26.1364"/>
<polygon fill="#c0c0c0" stroke="#c0c0c0" stroke-width="2" points="183.8665,-29.5218 192.8137,-23.8474 182.2808,-22.7037 183.8665,-29.5218"/>
</g>
<!-- 3 -->
<g id="node4" class="node">
<title>3</title>
<path fill="none" stroke="#5682d8" stroke-width="2" d="M583.5,-108C583.5,-108 538.5,-108 538.5,-108 532.5,-108 526.5,-102 526.5,-96 526.5,-96 526.5,-84 526.5,-84 526.5,-78 532.5,-72 538.5,-72 538.5,-72 583.5,-72 583.5,-72 589.5,-72 595.5,-78 595.5,-84 595.5,-84 595.5,-96 595.5,-96 595.5,-102 589.5,-108 583.5,-108"/>
<text text-anchor="middle" x="561" y="-87.5" font-family="sans" font-size="10.00" fill="#000000">conda_env</text>
</g>
<!-- 3&#45;&gt;0 -->
<g id="edge6" class="edge">
<title>3&#45;&gt;0</title>
<path fill="none" stroke="#c0c0c0" stroke-width="2" d="M526.1701,-74.9844C523.0969,-73.8937 520.0106,-72.879 517,-72 425.3593,-45.2424 313.7554,-29.2227 256.9995,-22.2076"/>
<polygon fill="#c0c0c0" stroke="#c0c0c0" stroke-width="2" points="257.406,-18.7313 247.0573,-21.0019 256.5632,-25.6804 257.406,-18.7313"/>
</g>
<!-- 4 -->
<g id="node5" class="node">
<title>4</title>
<path fill="none" stroke="#bed856" stroke-width="2" d="M140.5,-108C140.5,-108 81.5,-108 81.5,-108 75.5,-108 69.5,-102 69.5,-96 69.5,-96 69.5,-84 69.5,-84 69.5,-78 75.5,-72 81.5,-72 81.5,-72 140.5,-72 140.5,-72 146.5,-72 152.5,-78 152.5,-84 152.5,-84 152.5,-96 152.5,-96 152.5,-102 146.5,-108 140.5,-108"/>
<text text-anchor="middle" x="111" y="-87.5" font-family="sans" font-size="10.00" fill="#000000">biom_convert</text>
</g>
<!-- 4&#45;&gt;0 -->
<g id="edge3" class="edge">
<title>4&#45;&gt;0</title>
<path fill="none" stroke="#c0c0c0" stroke-width="2" d="M138.5053,-71.8314C152.4234,-62.6377 169.4839,-51.3684 184.3921,-41.5208"/>
<polygon fill="#c0c0c0" stroke="#c0c0c0" stroke-width="2" points="186.4662,-44.3455 192.8811,-35.9134 182.608,-38.5047 186.4662,-44.3455"/>
</g>
<!-- 5 -->
<g id="node6" class="node">
<title>5</title>
<path fill="none" stroke="#56d8d0" stroke-width="2" d="M257,-108C257,-108 183,-108 183,-108 177,-108 171,-102 171,-96 171,-96 171,-84 171,-84 171,-78 177,-72 183,-72 183,-72 257,-72 257,-72 263,-72 269,-78 269,-84 269,-84 269,-96 269,-96 269,-102 263,-108 257,-108"/>
<text text-anchor="middle" x="220" y="-87.5" font-family="sans" font-size="10.00" fill="#000000">kraken_to_krona</text>
</g>
<!-- 5&#45;&gt;0 -->
<g id="edge1" class="edge">
<title>5&#45;&gt;0</title>
<path fill="none" stroke="#c0c0c0" stroke-width="2" d="M220,-71.8314C220,-64.131 220,-54.9743 220,-46.4166"/>
<polygon fill="#c0c0c0" stroke="#c0c0c0" stroke-width="2" points="223.5001,-46.4132 220,-36.4133 216.5001,-46.4133 223.5001,-46.4132"/>
</g>
<!-- 6 -->
<g id="node7" class="node">
<title>6</title>
<path fill="none" stroke="#56c9d8" stroke-width="2" d="M496.5,-108C496.5,-108 431.5,-108 431.5,-108 425.5,-108 419.5,-102 419.5,-96 419.5,-96 419.5,-84 419.5,-84 419.5,-78 425.5,-72 431.5,-72 431.5,-72 496.5,-72 496.5,-72 502.5,-72 508.5,-78 508.5,-84 508.5,-84 508.5,-96 508.5,-96 508.5,-102 502.5,-108 496.5,-108"/>
<text text-anchor="middle" x="464" y="-87.5" font-family="sans" font-size="10.00" fill="#000000">mlca_to_krona</text>
</g>
<!-- 6&#45;&gt;0 -->
<g id="edge2" class="edge">
<title>6&#45;&gt;0</title>
<path fill="none" stroke="#c0c0c0" stroke-width="2" d="M419.2607,-74.9153C416.1317,-73.9131 413.0217,-72.9325 410,-72 357.0598,-55.6625 295.2657,-38.4386 256.8787,-27.9542"/>
<polygon fill="#c0c0c0" stroke="#c0c0c0" stroke-width="2" points="257.7399,-24.5613 247.1716,-25.3103 255.9003,-31.3152 257.7399,-24.5613"/>
</g>
<!-- 7 -->
<g id="node8" class="node">
<title>7</title>
<path fill="none" stroke="#61d856" stroke-width="2" d="M389,-108C389,-108 299,-108 299,-108 293,-108 287,-102 287,-96 287,-96 287,-84 287,-84 287,-78 293,-72 299,-72 299,-72 389,-72 389,-72 395,-72 401,-78 401,-84 401,-84 401,-96 401,-96 401,-102 395,-108 389,-108"/>
<text text-anchor="middle" x="344" y="-87.5" font-family="sans" font-size="10.00" fill="#000000">sintaxtext_to_krona</text>
</g>
<!-- 7&#45;&gt;0 -->
<g id="edge7" class="edge">
<title>7&#45;&gt;0</title>
<path fill="none" stroke="#c0c0c0" stroke-width="2" d="M312.7096,-71.8314C295.4804,-61.8273 274.0184,-49.3655 256.0844,-38.9522"/>
<polygon fill="#c0c0c0" stroke="#c0c0c0" stroke-width="2" points="257.4741,-35.7119 247.0687,-33.7173 253.9591,-41.7655 257.4741,-35.7119"/>
</g>
<!-- 8 -->
<g id="node9" class="node">
<title>8</title>
<path fill="none" stroke="#56d8a2" stroke-width="2" d="M149.5,-180C149.5,-180 78.5,-180 78.5,-180 72.5,-180 66.5,-174 66.5,-168 66.5,-168 66.5,-156 66.5,-156 66.5,-150 72.5,-144 78.5,-144 78.5,-144 149.5,-144 149.5,-144 155.5,-144 161.5,-150 161.5,-156 161.5,-156 161.5,-168 161.5,-168 161.5,-174 155.5,-180 149.5,-180"/>
<text text-anchor="middle" x="114" y="-159.5" font-family="sans" font-size="10.00" fill="#000000">kraken_to_biom</text>
</g>
<!-- 8&#45;&gt;4 -->
<g id="edge9" class="edge">
<title>8&#45;&gt;4</title>
<path fill="none" stroke="#c0c0c0" stroke-width="2" d="M113.243,-143.8314C112.9221,-136.131 112.5406,-126.9743 112.184,-118.4166"/>
<polygon fill="#c0c0c0" stroke="#c0c0c0" stroke-width="2" points="115.6806,-118.2589 111.7672,-108.4133 108.6867,-118.5503 115.6806,-118.2589"/>
</g>
<!-- 9 -->
<g id="node10" class="node">
<title>9</title>
<path fill="none" stroke="#566bd8" stroke-width="2" d="M272,-180C272,-180 192,-180 192,-180 186,-180 180,-174 180,-168 180,-168 180,-156 180,-156 180,-150 186,-144 192,-144 192,-144 272,-144 272,-144 278,-144 284,-150 284,-156 284,-156 284,-168 284,-168 284,-174 278,-180 272,-180"/>
<text text-anchor="middle" x="232" y="-159.5" font-family="sans" font-size="10.00" fill="#000000">kraken2_reformat</text>
</g>
<!-- 9&#45;&gt;5 -->
<g id="edge10" class="edge">
<title>9&#45;&gt;5</title>
<path fill="none" stroke="#c0c0c0" stroke-width="2" d="M228.9719,-143.8314C227.6885,-136.131 226.1624,-126.9743 224.7361,-118.4166"/>
<polygon fill="#c0c0c0" stroke="#c0c0c0" stroke-width="2" points="228.1653,-117.7018 223.0689,-108.4133 221.2606,-118.8526 228.1653,-117.7018"/>
</g>
<!-- 10 -->
<g id="node11" class="node">
<title>10</title>
<path fill="none" stroke="#a7d856" stroke-width="2" d="M476,-180C476,-180 446,-180 446,-180 440,-180 434,-174 434,-168 434,-168 434,-156 434,-156 434,-150 440,-144 446,-144 446,-144 476,-144 476,-144 482,-144 488,-150 488,-156 488,-156 488,-168 488,-168 488,-174 482,-180 476,-180"/>
<text text-anchor="middle" x="461" y="-159.5" font-family="sans" font-size="10.00" fill="#000000">mlca</text>
</g>
<!-- 10&#45;&gt;6 -->
<g id="edge11" class="edge">
<title>10&#45;&gt;6</title>
<path fill="none" stroke="#c0c0c0" stroke-width="2" d="M461.757,-143.8314C462.0779,-136.131 462.4594,-126.9743 462.816,-118.4166"/>
<polygon fill="#c0c0c0" stroke="#c0c0c0" stroke-width="2" points="466.3133,-118.5503 463.2328,-108.4133 459.3194,-118.2589 466.3133,-118.5503"/>
</g>
<!-- 11 -->
<g id="node12" class="node">
<title>11</title>
<path fill="none" stroke="#d8c356" stroke-width="2" d="M404,-180C404,-180 314,-180 314,-180 308,-180 302,-174 302,-168 302,-168 302,-156 302,-156 302,-150 308,-144 314,-144 314,-144 404,-144 404,-144 410,-144 416,-150 416,-156 416,-156 416,-168 416,-168 416,-174 410,-180 404,-180"/>
<text text-anchor="middle" x="359" y="-159.5" font-family="sans" font-size="10.00" fill="#000000">sintax_to_kronatext</text>
</g>
<!-- 11&#45;&gt;7 -->
<g id="edge12" class="edge">
<title>11&#45;&gt;7</title>
<path fill="none" stroke="#c0c0c0" stroke-width="2" d="M355.2149,-143.8314C353.6106,-136.131 351.703,-126.9743 349.9201,-118.4166"/>
<polygon fill="#c0c0c0" stroke="#c0c0c0" stroke-width="2" points="353.3021,-117.4892 347.8361,-108.4133 346.4493,-118.9169 353.3021,-117.4892"/>
</g>
<!-- 12 -->
<g id="node13" class="node">
<title>12</title>
<path fill="none" stroke="#d6d856" stroke-width="2" d="M248,-252C248,-252 216,-252 216,-252 210,-252 204,-246 204,-240 204,-240 204,-228 204,-228 204,-222 210,-216 216,-216 216,-216 248,-216 248,-216 254,-216 260,-222 260,-228 260,-228 260,-240 260,-240 260,-246 254,-252 248,-252"/>
<text text-anchor="middle" x="232" y="-231.5" font-family="sans" font-size="10.00" fill="#000000">kraken2</text>
</g>
<!-- 12&#45;&gt;8 -->
<g id="edge13" class="edge">
<title>12&#45;&gt;8</title>
<path fill="none" stroke="#c0c0c0" stroke-width="2" d="M203.7361,-216.7542C188.4334,-207.417 169.3036,-195.7445 152.6423,-185.5783"/>
<polygon fill="#c0c0c0" stroke="#c0c0c0" stroke-width="2" points="154.0394,-182.3308 143.68,-180.1098 150.3933,-188.3062 154.0394,-182.3308"/>
</g>
<!-- 12&#45;&gt;9 -->
<g id="edge14" class="edge">
<title>12&#45;&gt;9</title>
<path fill="none" stroke="#c0c0c0" stroke-width="2" d="M232,-215.8314C232,-208.131 232,-198.9743 232,-190.4166"/>
<polygon fill="#c0c0c0" stroke="#c0c0c0" stroke-width="2" points="235.5001,-190.4132 232,-180.4133 228.5001,-190.4133 235.5001,-190.4132"/>
</g>
<!-- 13 -->
<g id="node14" class="node">
<title>13</title>
<path fill="none" stroke="#56d87b" stroke-width="2" d="M464.5,-252C464.5,-252 411.5,-252 411.5,-252 405.5,-252 399.5,-246 399.5,-240 399.5,-240 399.5,-228 399.5,-228 399.5,-222 405.5,-216 411.5,-216 411.5,-216 464.5,-216 464.5,-216 470.5,-216 476.5,-222 476.5,-228 476.5,-228 476.5,-240 476.5,-240 476.5,-246 470.5,-252 464.5,-252"/>
<text text-anchor="middle" x="438" y="-231.5" font-family="sans" font-size="10.00" fill="#000000">tax_to_blast</text>
</g>
<!-- 13&#45;&gt;10 -->
<g id="edge15" class="edge">
<title>13&#45;&gt;10</title>
<path fill="none" stroke="#c0c0c0" stroke-width="2" d="M443.8039,-215.8314C446.2908,-208.0463 449.2531,-198.7729 452.0125,-190.1347"/>
<polygon fill="#c0c0c0" stroke="#c0c0c0" stroke-width="2" points="455.409,-191.0041 455.118,-180.4133 448.7409,-188.874 455.409,-191.0041"/>
</g>
<!-- 14 -->
<g id="node15" class="node">
<title>14</title>
<path fill="none" stroke="#56d892" stroke-width="2" d="M347,-252C347,-252 317,-252 317,-252 311,-252 305,-246 305,-240 305,-240 305,-228 305,-228 305,-222 311,-216 317,-216 317,-216 347,-216 347,-216 353,-216 359,-222 359,-228 359,-228 359,-240 359,-240 359,-246 353,-252 347,-252"/>
<text text-anchor="middle" x="332" y="-231.5" font-family="sans" font-size="10.00" fill="#000000">sintax</text>
</g>
<!-- 14&#45;&gt;11 -->
<g id="edge16" class="edge">
<title>14&#45;&gt;11</title>
<path fill="none" stroke="#c0c0c0" stroke-width="2" d="M338.8132,-215.8314C341.7644,-207.9617 345.2858,-198.5712 348.555,-189.8533"/>
<polygon fill="#c0c0c0" stroke="#c0c0c0" stroke-width="2" points="351.8609,-191.0055 352.095,-180.4133 345.3066,-188.5476 351.8609,-191.0055"/>
</g>
<!-- 15 -->
<g id="node16" class="node">
<title>15</title>
<path fill="none" stroke="#8fd856" stroke-width="2" d="M343,-324C343,-324 245,-324 245,-324 239,-324 233,-318 233,-312 233,-312 233,-300 233,-300 233,-294 239,-288 245,-288 245,-288 343,-288 343,-288 349,-288 355,-294 355,-300 355,-300 355,-312 355,-312 355,-318 349,-324 343,-324"/>
<text text-anchor="middle" x="294" y="-303.5" font-family="sans" font-size="10.00" fill="#000000">vsearch_rereplication</text>
</g>
<!-- 15&#45;&gt;12 -->
<g id="edge17" class="edge">
<title>15&#45;&gt;12</title>
<path fill="none" stroke="#c0c0c0" stroke-width="2" d="M278.3548,-287.8314C271.1409,-279.454 262.443,-269.3531 254.5395,-260.1749"/>
<polygon fill="#c0c0c0" stroke="#c0c0c0" stroke-width="2" points="257.0333,-257.7071 247.8559,-252.4133 251.7289,-262.2748 257.0333,-257.7071"/>
</g>
<!-- 15&#45;&gt;14 -->
<g id="edge19" class="edge">
<title>15&#45;&gt;14</title>
<path fill="none" stroke="#c0c0c0" stroke-width="2" d="M303.589,-287.8314C307.8317,-279.7925 312.9121,-270.1666 317.596,-261.2918"/>
<polygon fill="#c0c0c0" stroke="#c0c0c0" stroke-width="2" points="320.7096,-262.8908 322.2819,-252.4133 314.5189,-259.6235 320.7096,-262.8908"/>
</g>
<!-- 16 -->
<g id="node17" class="node">
<title>16</title>
<path fill="none" stroke="#78d856" stroke-width="2" d="M428,-324C428,-324 398,-324 398,-324 392,-324 386,-318 386,-312 386,-312 386,-300 386,-300 386,-294 392,-288 398,-288 398,-288 428,-288 428,-288 434,-288 440,-294 440,-300 440,-300 440,-312 440,-312 440,-318 434,-324 428,-324"/>
<text text-anchor="middle" x="413" y="-303.5" font-family="sans" font-size="10.00" fill="#000000">blastn</text>
</g>
<!-- 16&#45;&gt;13 -->
<g id="edge18" class="edge">
<title>16&#45;&gt;13</title>
<path fill="none" stroke="#c0c0c0" stroke-width="2" d="M419.3086,-287.8314C422.0117,-280.0463 425.2316,-270.7729 428.231,-262.1347"/>
<polygon fill="#c0c0c0" stroke="#c0c0c0" stroke-width="2" points="431.6327,-263.0081 431.6065,-252.4133 425.02,-260.7119 431.6327,-263.0081"/>
</g>
<!-- 17 -->
<g id="node18" class="node">
<title>17</title>
<path fill="none" stroke="#56b1d8" stroke-width="2" d="M335.5,-468C335.5,-468 252.5,-468 252.5,-468 246.5,-468 240.5,-462 240.5,-456 240.5,-456 240.5,-444 240.5,-444 240.5,-438 246.5,-432 252.5,-432 252.5,-432 335.5,-432 335.5,-432 341.5,-432 347.5,-438 347.5,-444 347.5,-444 347.5,-456 347.5,-456 347.5,-462 341.5,-468 335.5,-468"/>
<text text-anchor="middle" x="294" y="-447.5" font-family="sans" font-size="10.00" fill="#000000">vsearch_denoising</text>
</g>
<!-- 17&#45;&gt;15 -->
<g id="edge20" class="edge">
<title>17&#45;&gt;15</title>
<path fill="none" stroke="#c0c0c0" stroke-width="2" d="M294,-431.7623C294,-407.201 294,-363.2474 294,-334.3541"/>
<polygon fill="#c0c0c0" stroke="#c0c0c0" stroke-width="2" points="297.5001,-334.0896 294,-324.0896 290.5001,-334.0897 297.5001,-334.0896"/>
</g>
<!-- 18 -->
<g id="node19" class="node">
<title>18</title>
<path fill="none" stroke="#d8b456" stroke-width="2" d="M453.5,-396C453.5,-396 338.5,-396 338.5,-396 332.5,-396 326.5,-390 326.5,-384 326.5,-384 326.5,-372 326.5,-372 326.5,-366 332.5,-360 338.5,-360 338.5,-360 453.5,-360 453.5,-360 459.5,-360 465.5,-366 465.5,-372 465.5,-372 465.5,-384 465.5,-384 465.5,-390 459.5,-396 453.5,-396"/>
<text text-anchor="middle" x="396" y="-375.5" font-family="sans" font-size="10.00" fill="#000000">vsearch_dechimerisation</text>
</g>
<!-- 17&#45;&gt;18 -->
<g id="edge23" class="edge">
<title>17&#45;&gt;18</title>
<path fill="none" stroke="#c0c0c0" stroke-width="2" d="M319.7389,-431.8314C332.5437,-422.7927 348.1909,-411.7476 361.9719,-402.0198"/>
<polygon fill="#c0c0c0" stroke="#c0c0c0" stroke-width="2" points="364.118,-404.7891 370.2693,-396.1628 360.0812,-399.0703 364.118,-404.7891"/>
</g>
<!-- 18&#45;&gt;16 -->
<g id="edge21" class="edge">
<title>18&#45;&gt;16</title>
<path fill="none" stroke="#c0c0c0" stroke-width="2" d="M400.2898,-359.8314C402.108,-352.131 404.2699,-342.9743 406.2905,-334.4166"/>
<polygon fill="#c0c0c0" stroke="#c0c0c0" stroke-width="2" points="409.7608,-334.95 408.6524,-324.4133 402.9481,-333.3414 409.7608,-334.95"/>
</g>
<!-- 19 -->
<g id="node20" class="node">
<title>19</title>
<path fill="none" stroke="#d85656" stroke-width="2" d="M311,-540C311,-540 211,-540 211,-540 205,-540 199,-534 199,-528 199,-528 199,-516 199,-516 199,-510 205,-504 211,-504 211,-504 311,-504 311,-504 317,-504 323,-510 323,-516 323,-516 323,-528 323,-528 323,-534 317,-540 311,-540"/>
<text text-anchor="middle" x="261" y="-519.5" font-family="sans" font-size="10.00" fill="#000000">vsearch_dereplication</text>
</g>
<!-- 19&#45;&gt;17 -->
<g id="edge22" class="edge">
<title>19&#45;&gt;17</title>
<path fill="none" stroke="#c0c0c0" stroke-width="2" d="M269.3273,-503.8314C272.973,-495.8771 277.3309,-486.369 281.3627,-477.5723"/>
<polygon fill="#c0c0c0" stroke="#c0c0c0" stroke-width="2" points="284.5757,-478.9622 285.5606,-468.4133 278.2123,-476.0456 284.5757,-478.9622"/>
</g>
<!-- 20&#45;&gt;19 -->
<g id="edge24" class="edge">
<title>20&#45;&gt;19</title>
<path fill="none" stroke="#c0c0c0" stroke-width="2" d="M231.0937,-575.8314C235.5597,-567.7925 240.9075,-558.1666 245.8379,-549.2918"/>
<polygon fill="#c0c0c0" stroke="#c0c0c0" stroke-width="2" points="248.9735,-550.8546 250.7704,-540.4133 242.8544,-547.4551 248.9735,-550.8546"/>
</g>
</g>
</svg>
