<?xml version="1.0" encoding="UTF-8" standalone="no"?>
<!DOCTYPE svg PUBLIC "-//W3C//DTD SVG 1.1//EN"
 "http://www.w3.org/Graphics/SVG/1.1/DTD/svg11.dtd">
<!-- Generated by graphviz version 2.40.1 (20161225.0304)
 -->
<!-- Title: snakemake_dag Pages: 1 -->
<svg width="639pt" height="692pt"
 viewBox="0.00 0.00 638.50 692.00" xmlns="http://www.w3.org/2000/svg" xmlns:xlink="http://www.w3.org/1999/xlink">
<g id="graph0" class="graph" transform="scale(1 1) rotate(0) translate(4 688)">
<title>snakemake_dag</title>
<polygon fill="#ffffff" stroke="transparent" points="-4,4 -4,-688 634.5,-688 634.5,4 -4,4"/>
<!-- 0 -->
<g id="node1" class="node">
<title>0</title>
<path fill="none" stroke="#d89c56" stroke-width="2" d="M215,-36C215,-36 185,-36 185,-36 179,-36 173,-30 173,-24 173,-24 173,-12 173,-12 173,-6 179,0 185,0 185,0 215,0 215,0 221,0 227,-6 227,-12 227,-12 227,-24 227,-24 227,-30 221,-36 215,-36"/>
<text text-anchor="middle" x="200" y="-15.5" font-family="sans" font-size="10.00" fill="#000000">all</text>
</g>
<!-- 1 -->
<g id="node2" class="node">
<title>1</title>
<path fill="none" stroke="#d86e56" stroke-width="2" d="M139.5,-684C139.5,-684 36.5,-684 36.5,-684 30.5,-684 24.5,-678 24.5,-672 24.5,-672 24.5,-660 24.5,-660 24.5,-654 30.5,-648 36.5,-648 36.5,-648 139.5,-648 139.5,-648 145.5,-648 151.5,-654 151.5,-660 151.5,-660 151.5,-672 151.5,-672 151.5,-678 145.5,-684 139.5,-684"/>
<text text-anchor="middle" x="88" y="-663.5" font-family="sans" font-size="10.00" fill="#000000">fastp_trim_and_merge</text>
</g>
<!-- 1&#45;&gt;0 -->
<g id="edge2" class="edge">
<title>1&#45;&gt;0</title>
<path fill="none" stroke="#c0c0c0" stroke-width="2" d="M67.5898,-647.7087C41.5938,-622.291 0,-573.5656 0,-522 0,-522 0,-522 0,-162 0,-117.669 9.9119,-101.5028 43,-72 76.7299,-41.925 128.0311,-28.4338 162.7303,-22.4939"/>
<polygon fill="#c0c0c0" stroke="#c0c0c0" stroke-width="2" points="163.5969,-25.9005 172.9282,-20.8829 162.5045,-18.9863 163.5969,-25.9005"/>
</g>
<!-- 3 -->
<g id="node4" class="node">
<title>3</title>
<path fill="none" stroke="#d85656" stroke-width="2" d="M135.5,-540C135.5,-540 40.5,-540 40.5,-540 34.5,-540 28.5,-534 28.5,-528 28.5,-528 28.5,-516 28.5,-516 28.5,-510 34.5,-504 40.5,-504 40.5,-504 135.5,-504 135.5,-504 141.5,-504 147.5,-510 147.5,-516 147.5,-516 147.5,-528 147.5,-528 147.5,-534 141.5,-540 135.5,-540"/>
<text text-anchor="middle" x="88" y="-519.5" font-family="sans" font-size="10.00" fill="#000000">vsearch_fastq_report</text>
</g>
<!-- 1&#45;&gt;3 -->
<g id="edge10" class="edge">
<title>1&#45;&gt;3</title>
<path fill="none" stroke="#c0c0c0" stroke-width="2" d="M88,-647.7623C88,-623.201 88,-579.2474 88,-550.3541"/>
<polygon fill="#c0c0c0" stroke="#c0c0c0" stroke-width="2" points="91.5001,-550.0896 88,-540.0896 84.5001,-550.0897 91.5001,-550.0896"/>
</g>
<!-- 14 -->
<g id="node15" class="node">
<title>14</title>
<path fill="none" stroke="#78d856" stroke-width="2" d="M224,-612C224,-612 162,-612 162,-612 156,-612 150,-606 150,-600 150,-600 150,-588 150,-588 150,-582 156,-576 162,-576 162,-576 224,-576 224,-576 230,-576 236,-582 236,-588 236,-588 236,-600 236,-600 236,-606 230,-612 224,-612"/>
<text text-anchor="middle" x="193" y="-591.5" font-family="sans" font-size="10.00" fill="#000000">fastq_to_fasta</text>
</g>
<!-- 1&#45;&gt;14 -->
<g id="edge20" class="edge">
<title>1&#45;&gt;14</title>
<path fill="none" stroke="#c0c0c0" stroke-width="2" d="M114.4959,-647.8314C127.6774,-638.7927 143.7847,-627.7476 157.9711,-618.0198"/>
<polygon fill="#c0c0c0" stroke="#c0c0c0" stroke-width="2" points="160.2446,-620.7047 166.5125,-612.1628 156.2859,-614.9316 160.2446,-620.7047"/>
</g>
<!-- 2 -->
<g id="node3" class="node">
<title>2</title>
<path fill="none" stroke="#d8b456" stroke-width="2" d="M295.5,-468C295.5,-468 212.5,-468 212.5,-468 206.5,-468 200.5,-462 200.5,-456 200.5,-456 200.5,-444 200.5,-444 200.5,-438 206.5,-432 212.5,-432 212.5,-432 295.5,-432 295.5,-432 301.5,-432 307.5,-438 307.5,-444 307.5,-444 307.5,-456 307.5,-456 307.5,-462 301.5,-468 295.5,-468"/>
<text text-anchor="middle" x="254" y="-447.5" font-family="sans" font-size="10.00" fill="#000000">vsearch_denoising</text>
</g>
<!-- 2&#45;&gt;0 -->
<g id="edge7" class="edge">
<title>2&#45;&gt;0</title>
<path fill="none" stroke="#c0c0c0" stroke-width="2" d="M200.1111,-432.2535C147.7211,-411.2041 76,-370.5921 76,-306 76,-306 76,-306 76,-162 76,-121.1184 70.1965,-104.4976 95,-72 111.7921,-49.9989 140.0793,-36.1842 163.065,-28.0406"/>
<polygon fill="#c0c0c0" stroke="#c0c0c0" stroke-width="2" points="164.4769,-31.2598 172.8667,-24.7897 162.2732,-24.6157 164.4769,-31.2598"/>
</g>
<!-- 18 -->
<g id="node19" class="node">
<title>18</title>
<path fill="none" stroke="#d6d856" stroke-width="2" d="M316,-324C316,-324 218,-324 218,-324 212,-324 206,-318 206,-312 206,-312 206,-300 206,-300 206,-294 212,-288 218,-288 218,-288 316,-288 316,-288 322,-288 328,-294 328,-300 328,-300 328,-312 328,-312 328,-318 322,-324 316,-324"/>
<text text-anchor="middle" x="267" y="-303.5" font-family="sans" font-size="10.00" fill="#000000">vsearch_rereplication</text>
</g>
<!-- 2&#45;&gt;18 -->
<g id="edge24" class="edge">
<title>2&#45;&gt;18</title>
<path fill="none" stroke="#c0c0c0" stroke-width="2" d="M255.6465,-431.7623C257.8638,-407.201 261.8318,-363.2474 264.4403,-334.3541"/>
<polygon fill="#c0c0c0" stroke="#c0c0c0" stroke-width="2" points="267.9535,-334.3638 265.3669,-324.0896 260.9819,-333.7344 267.9535,-334.3638"/>
</g>
<!-- 20 -->
<g id="node21" class="node">
<title>20</title>
<path fill="none" stroke="#56d8b9" stroke-width="2" d="M421.5,-396C421.5,-396 306.5,-396 306.5,-396 300.5,-396 294.5,-390 294.5,-384 294.5,-384 294.5,-372 294.5,-372 294.5,-366 300.5,-360 306.5,-360 306.5,-360 421.5,-360 421.5,-360 427.5,-360 433.5,-366 433.5,-372 433.5,-372 433.5,-384 433.5,-384 433.5,-390 427.5,-396 421.5,-396"/>
<text text-anchor="middle" x="364" y="-375.5" font-family="sans" font-size="10.00" fill="#000000">vsearch_dechimerisation</text>
</g>
<!-- 2&#45;&gt;20 -->
<g id="edge26" class="edge">
<title>2&#45;&gt;20</title>
<path fill="none" stroke="#c0c0c0" stroke-width="2" d="M281.7576,-431.8314C295.697,-422.7074 312.7598,-411.539 327.7231,-401.7449"/>
<polygon fill="#c0c0c0" stroke="#c0c0c0" stroke-width="2" points="329.801,-404.5679 336.2512,-396.1628 325.9674,-398.711 329.801,-404.5679"/>
</g>
<!-- 3&#45;&gt;0 -->
<g id="edge1" class="edge">
<title>3&#45;&gt;0</title>
<path fill="none" stroke="#c0c0c0" stroke-width="2" d="M77.1507,-503.611C62.4453,-476.8991 38,-425.3709 38,-378 38,-378 38,-378 38,-162 38,-118.9187 43.9106,-102.8322 74,-72 98.1308,-47.2735 135.4122,-33.2255 163.1695,-25.6965"/>
<polygon fill="#c0c0c0" stroke="#c0c0c0" stroke-width="2" points="164.0976,-29.0719 172.923,-23.2098 162.3682,-22.2888 164.0976,-29.0719"/>
</g>
<!-- 4 -->
<g id="node5" class="node">
<title>4</title>
<path fill="none" stroke="#d8c356" stroke-width="2" d="M618.5,-108C618.5,-108 573.5,-108 573.5,-108 567.5,-108 561.5,-102 561.5,-96 561.5,-96 561.5,-84 561.5,-84 561.5,-78 567.5,-72 573.5,-72 573.5,-72 618.5,-72 618.5,-72 624.5,-72 630.5,-78 630.5,-84 630.5,-84 630.5,-96 630.5,-96 630.5,-102 624.5,-108 618.5,-108"/>
<text text-anchor="middle" x="596" y="-87.5" font-family="sans" font-size="10.00" fill="#000000">conda_env</text>
</g>
<!-- 4&#45;&gt;0 -->
<g id="edge3" class="edge">
<title>4&#45;&gt;0</title>
<path fill="none" stroke="#c0c0c0" stroke-width="2" d="M561.1959,-74.8937C558.1171,-73.8227 555.0224,-72.8374 552,-72 439.9673,-40.9614 302.6098,-26.386 237.5704,-20.8344"/>
<polygon fill="#c0c0c0" stroke="#c0c0c0" stroke-width="2" points="237.6527,-17.3293 227.3973,-19.9899 237.0735,-24.3053 237.6527,-17.3293"/>
</g>
<!-- 5 -->
<g id="node6" class="node">
<title>5</title>
<path fill="none" stroke="#bed856" stroke-width="2" d="M175.5,-108C175.5,-108 116.5,-108 116.5,-108 110.5,-108 104.5,-102 104.5,-96 104.5,-96 104.5,-84 104.5,-84 104.5,-78 110.5,-72 116.5,-72 116.5,-72 175.5,-72 175.5,-72 181.5,-72 187.5,-78 187.5,-84 187.5,-84 187.5,-96 187.5,-96 187.5,-102 181.5,-108 175.5,-108"/>
<text text-anchor="middle" x="146" y="-87.5" font-family="sans" font-size="10.00" fill="#000000">biom_convert</text>
</g>
<!-- 5&#45;&gt;0 -->
<g id="edge4" class="edge">
<title>5&#45;&gt;0</title>
<path fill="none" stroke="#c0c0c0" stroke-width="2" d="M159.6265,-71.8314C165.846,-63.5386 173.3322,-53.557 180.16,-44.4533"/>
<polygon fill="#c0c0c0" stroke="#c0c0c0" stroke-width="2" points="182.99,-46.5133 186.19,-36.4133 177.39,-42.3133 182.99,-46.5133"/>
</g>
<!-- 6 -->
<g id="node7" class="node">
<title>6</title>
<path fill="none" stroke="#56d8d0" stroke-width="2" d="M292,-108C292,-108 218,-108 218,-108 212,-108 206,-102 206,-96 206,-96 206,-84 206,-84 206,-78 212,-72 218,-72 218,-72 292,-72 292,-72 298,-72 304,-78 304,-84 304,-84 304,-96 304,-96 304,-102 298,-108 292,-108"/>
<text text-anchor="middle" x="255" y="-87.5" font-family="sans" font-size="10.00" fill="#000000">kraken_to_krona</text>
</g>
<!-- 6&#45;&gt;0 -->
<g id="edge5" class="edge">
<title>6&#45;&gt;0</title>
<path fill="none" stroke="#c0c0c0" stroke-width="2" d="M241.1212,-71.8314C234.7864,-63.5386 227.1616,-53.557 220.2074,-44.4533"/>
<polygon fill="#c0c0c0" stroke="#c0c0c0" stroke-width="2" points="222.9175,-42.2353 214.0657,-36.4133 217.3548,-46.4847 222.9175,-42.2353"/>
</g>
<!-- 7 -->
<g id="node8" class="node">
<title>7</title>
<path fill="none" stroke="#566bd8" stroke-width="2" d="M531.5,-108C531.5,-108 466.5,-108 466.5,-108 460.5,-108 454.5,-102 454.5,-96 454.5,-96 454.5,-84 454.5,-84 454.5,-78 460.5,-72 466.5,-72 466.5,-72 531.5,-72 531.5,-72 537.5,-72 543.5,-78 543.5,-84 543.5,-84 543.5,-96 543.5,-96 543.5,-102 537.5,-108 531.5,-108"/>
<text text-anchor="middle" x="499" y="-87.5" font-family="sans" font-size="10.00" fill="#000000">mlca_to_krona</text>
</g>
<!-- 7&#45;&gt;0 -->
<g id="edge8" class="edge">
<title>7&#45;&gt;0</title>
<path fill="none" stroke="#c0c0c0" stroke-width="2" d="M454.3218,-74.7062C451.1782,-73.7538 448.0483,-72.8415 445,-72 372.0502,-51.862 285.2645,-34.1846 237.0287,-24.9044"/>
<polygon fill="#c0c0c0" stroke="#c0c0c0" stroke-width="2" points="237.5331,-21.4375 227.0541,-22.9995 236.22,-28.3133 237.5331,-21.4375"/>
</g>
<!-- 8 -->
<g id="node9" class="node">
<title>8</title>
<path fill="none" stroke="#569ad8" stroke-width="2" d="M424,-108C424,-108 334,-108 334,-108 328,-108 322,-102 322,-96 322,-96 322,-84 322,-84 322,-78 328,-72 334,-72 334,-72 424,-72 424,-72 430,-72 436,-78 436,-84 436,-84 436,-96 436,-96 436,-102 430,-108 424,-108"/>
<text text-anchor="middle" x="379" y="-87.5" font-family="sans" font-size="10.00" fill="#000000">sintaxtext_to_krona</text>
</g>
<!-- 8&#45;&gt;0 -->
<g id="edge6" class="edge">
<title>8&#45;&gt;0</title>
<path fill="none" stroke="#c0c0c0" stroke-width="2" d="M333.8307,-71.8314C303.7209,-59.7201 264.6556,-44.0067 236.5128,-32.6867"/>
<polygon fill="#c0c0c0" stroke="#c0c0c0" stroke-width="2" points="237.6303,-29.3637 227.0465,-28.879 235.018,-35.858 237.6303,-29.3637"/>
</g>
<!-- 9 -->
<g id="node10" class="node">
<title>9</title>
<path fill="none" stroke="#56d863" stroke-width="2" d="M299,-540C299,-540 199,-540 199,-540 193,-540 187,-534 187,-528 187,-528 187,-516 187,-516 187,-510 193,-504 199,-504 199,-504 299,-504 299,-504 305,-504 311,-510 311,-516 311,-516 311,-528 311,-528 311,-534 305,-540 299,-540"/>
<text text-anchor="middle" x="249" y="-519.5" font-family="sans" font-size="10.00" fill="#000000">vsearch_dereplication</text>
</g>
<!-- 9&#45;&gt;2 -->
<g id="edge9" class="edge">
<title>9&#45;&gt;2</title>
<path fill="none" stroke="#c0c0c0" stroke-width="2" d="M250.2617,-503.8314C250.7965,-496.131 251.4323,-486.9743 252.0266,-478.4166"/>
<polygon fill="#c0c0c0" stroke="#c0c0c0" stroke-width="2" points="255.52,-478.6317 252.7213,-468.4133 248.5368,-478.1467 255.52,-478.6317"/>
</g>
<!-- 10 -->
<g id="node11" class="node">
<title>10</title>
<path fill="none" stroke="#61d856" stroke-width="2" d="M187.5,-180C187.5,-180 116.5,-180 116.5,-180 110.5,-180 104.5,-174 104.5,-168 104.5,-168 104.5,-156 104.5,-156 104.5,-150 110.5,-144 116.5,-144 116.5,-144 187.5,-144 187.5,-144 193.5,-144 199.5,-150 199.5,-156 199.5,-156 199.5,-168 199.5,-168 199.5,-174 193.5,-180 187.5,-180"/>
<text text-anchor="middle" x="152" y="-159.5" font-family="sans" font-size="10.00" fill="#000000">kraken_to_biom</text>
</g>
<!-- 10&#45;&gt;5 -->
<g id="edge11" class="edge">
<title>10&#45;&gt;5</title>
<path fill="none" stroke="#c0c0c0" stroke-width="2" d="M150.4859,-143.8314C149.8442,-136.131 149.0812,-126.9743 148.3681,-118.4166"/>
<polygon fill="#c0c0c0" stroke="#c0c0c0" stroke-width="2" points="151.8529,-118.088 147.5344,-108.4133 144.8771,-118.6694 151.8529,-118.088"/>
</g>
<!-- 11 -->
<g id="node12" class="node">
<title>11</title>
<path fill="none" stroke="#56d8a2" stroke-width="2" d="M310,-180C310,-180 230,-180 230,-180 224,-180 218,-174 218,-168 218,-168 218,-156 218,-156 218,-150 224,-144 230,-144 230,-144 310,-144 310,-144 316,-144 322,-150 322,-156 322,-156 322,-168 322,-168 322,-174 316,-180 310,-180"/>
<text text-anchor="middle" x="270" y="-159.5" font-family="sans" font-size="10.00" fill="#000000">kraken2_reformat</text>
</g>
<!-- 11&#45;&gt;6 -->
<g id="edge12" class="edge">
<title>11&#45;&gt;6</title>
<path fill="none" stroke="#c0c0c0" stroke-width="2" d="M266.2149,-143.8314C264.6106,-136.131 262.703,-126.9743 260.9201,-118.4166"/>
<polygon fill="#c0c0c0" stroke="#c0c0c0" stroke-width="2" points="264.3021,-117.4892 258.8361,-108.4133 257.4493,-118.9169 264.3021,-117.4892"/>
</g>
<!-- 12 -->
<g id="node13" class="node">
<title>12</title>
<path fill="none" stroke="#56d87b" stroke-width="2" d="M514,-180C514,-180 484,-180 484,-180 478,-180 472,-174 472,-168 472,-168 472,-156 472,-156 472,-150 478,-144 484,-144 484,-144 514,-144 514,-144 520,-144 526,-150 526,-156 526,-156 526,-168 526,-168 526,-174 520,-180 514,-180"/>
<text text-anchor="middle" x="499" y="-159.5" font-family="sans" font-size="10.00" fill="#000000">mlca</text>
</g>
<!-- 12&#45;&gt;7 -->
<g id="edge13" class="edge">
<title>12&#45;&gt;7</title>
<path fill="none" stroke="#c0c0c0" stroke-width="2" d="M499,-143.8314C499,-136.131 499,-126.9743 499,-118.4166"/>
<polygon fill="#c0c0c0" stroke="#c0c0c0" stroke-width="2" points="502.5001,-118.4132 499,-108.4133 495.5001,-118.4133 502.5001,-118.4132"/>
</g>
<!-- 13 -->
<g id="node14" class="node">
<title>13</title>
<path fill="none" stroke="#56b1d8" stroke-width="2" d="M442,-180C442,-180 352,-180 352,-180 346,-180 340,-174 340,-168 340,-168 340,-156 340,-156 340,-150 346,-144 352,-144 352,-144 442,-144 442,-144 448,-144 454,-150 454,-156 454,-156 454,-168 454,-168 454,-174 448,-180 442,-180"/>
<text text-anchor="middle" x="397" y="-159.5" font-family="sans" font-size="10.00" fill="#000000">sintax_to_kronatext</text>
</g>
<!-- 13&#45;&gt;8 -->
<g id="edge14" class="edge">
<title>13&#45;&gt;8</title>
<path fill="none" stroke="#c0c0c0" stroke-width="2" d="M392.4578,-143.8314C390.5116,-136.0463 388.1932,-126.7729 386.0337,-118.1347"/>
<polygon fill="#c0c0c0" stroke="#c0c0c0" stroke-width="2" points="389.4242,-117.2658 383.6033,-108.4133 382.6332,-118.9636 389.4242,-117.2658"/>
</g>
<!-- 14&#45;&gt;9 -->
<g id="edge15" class="edge">
<title>14&#45;&gt;9</title>
<path fill="none" stroke="#c0c0c0" stroke-width="2" d="M207.1312,-575.8314C213.5811,-567.5386 221.3445,-557.557 228.4252,-548.4533"/>
<polygon fill="#c0c0c0" stroke="#c0c0c0" stroke-width="2" points="231.3019,-550.4556 234.6786,-540.4133 225.7764,-546.158 231.3019,-550.4556"/>
</g>
<!-- 15 -->
<g id="node16" class="node">
<title>15</title>
<path fill="none" stroke="#8fd856" stroke-width="2" d="M283,-252C283,-252 251,-252 251,-252 245,-252 239,-246 239,-240 239,-240 239,-228 239,-228 239,-222 245,-216 251,-216 251,-216 283,-216 283,-216 289,-216 295,-222 295,-228 295,-228 295,-240 295,-240 295,-246 289,-252 283,-252"/>
<text text-anchor="middle" x="267" y="-231.5" font-family="sans" font-size="10.00" fill="#000000">kraken2</text>
</g>
<!-- 15&#45;&gt;10 -->
<g id="edge16" class="edge">
<title>15&#45;&gt;10</title>
<path fill="none" stroke="#c0c0c0" stroke-width="2" d="M238.8678,-216.3868C224.056,-207.1133 205.6902,-195.6147 189.6663,-185.5824"/>
<polygon fill="#c0c0c0" stroke="#c0c0c0" stroke-width="2" points="191.3758,-182.5233 181.0426,-180.1832 187.6611,-188.4564 191.3758,-182.5233"/>
</g>
<!-- 15&#45;&gt;11 -->
<g id="edge17" class="edge">
<title>15&#45;&gt;11</title>
<path fill="none" stroke="#c0c0c0" stroke-width="2" d="M267.757,-215.8314C268.0779,-208.131 268.4594,-198.9743 268.816,-190.4166"/>
<polygon fill="#c0c0c0" stroke="#c0c0c0" stroke-width="2" points="272.3133,-190.5503 269.2328,-180.4133 265.3194,-190.2589 272.3133,-190.5503"/>
</g>
<!-- 16 -->
<g id="node17" class="node">
<title>16</title>
<path fill="none" stroke="#56c9d8" stroke-width="2" d="M507.5,-252C507.5,-252 454.5,-252 454.5,-252 448.5,-252 442.5,-246 442.5,-240 442.5,-240 442.5,-228 442.5,-228 442.5,-222 448.5,-216 454.5,-216 454.5,-216 507.5,-216 507.5,-216 513.5,-216 519.5,-222 519.5,-228 519.5,-228 519.5,-240 519.5,-240 519.5,-246 513.5,-252 507.5,-252"/>
<text text-anchor="middle" x="481" y="-231.5" font-family="sans" font-size="10.00" fill="#000000">tax_to_blast</text>
</g>
<!-- 16&#45;&gt;12 -->
<g id="edge18" class="edge">
<title>16&#45;&gt;12</title>
<path fill="none" stroke="#c0c0c0" stroke-width="2" d="M485.5422,-215.8314C487.4884,-208.0463 489.8068,-198.7729 491.9663,-190.1347"/>
<polygon fill="#c0c0c0" stroke="#c0c0c0" stroke-width="2" points="495.3668,-190.9636 494.3967,-180.4133 488.5758,-189.2658 495.3668,-190.9636"/>
</g>
<!-- 17 -->
<g id="node18" class="node">
<title>17</title>
<path fill="none" stroke="#5682d8" stroke-width="2" d="M387,-252C387,-252 357,-252 357,-252 351,-252 345,-246 345,-240 345,-240 345,-228 345,-228 345,-222 351,-216 357,-216 357,-216 387,-216 387,-216 393,-216 399,-222 399,-228 399,-228 399,-240 399,-240 399,-246 393,-252 387,-252"/>
<text text-anchor="middle" x="372" y="-231.5" font-family="sans" font-size="10.00" fill="#000000">sintax</text>
</g>
<!-- 17&#45;&gt;13 -->
<g id="edge19" class="edge">
<title>17&#45;&gt;13</title>
<path fill="none" stroke="#c0c0c0" stroke-width="2" d="M378.3086,-215.8314C381.0117,-208.0463 384.2316,-198.7729 387.231,-190.1347"/>
<polygon fill="#c0c0c0" stroke="#c0c0c0" stroke-width="2" points="390.6327,-191.0081 390.6065,-180.4133 384.02,-188.7119 390.6327,-191.0081"/>
</g>
<!-- 18&#45;&gt;15 -->
<g id="edge21" class="edge">
<title>18&#45;&gt;15</title>
<path fill="none" stroke="#c0c0c0" stroke-width="2" d="M267,-287.8314C267,-280.131 267,-270.9743 267,-262.4166"/>
<polygon fill="#c0c0c0" stroke="#c0c0c0" stroke-width="2" points="270.5001,-262.4132 267,-252.4133 263.5001,-262.4133 270.5001,-262.4132"/>
</g>
<!-- 18&#45;&gt;17 -->
<g id="edge23" class="edge">
<title>18&#45;&gt;17</title>
<path fill="none" stroke="#c0c0c0" stroke-width="2" d="M293.4959,-287.8314C306.6774,-278.7927 322.7847,-267.7476 336.9711,-258.0198"/>
<polygon fill="#c0c0c0" stroke="#c0c0c0" stroke-width="2" points="339.2446,-260.7047 345.5125,-252.1628 335.2859,-254.9316 339.2446,-260.7047"/>
</g>
<!-- 19 -->
<g id="node20" class="node">
<title>19</title>
<path fill="none" stroke="#d88556" stroke-width="2" d="M413,-324C413,-324 383,-324 383,-324 377,-324 371,-318 371,-312 371,-312 371,-300 371,-300 371,-294 377,-288 383,-288 383,-288 413,-288 413,-288 419,-288 425,-294 425,-300 425,-300 425,-312 425,-312 425,-318 419,-324 413,-324"/>
<text text-anchor="middle" x="398" y="-303.5" font-family="sans" font-size="10.00" fill="#000000">blastn</text>
</g>
<!-- 19&#45;&gt;16 -->
<g id="edge22" class="edge">
<title>19&#45;&gt;16</title>
<path fill="none" stroke="#c0c0c0" stroke-width="2" d="M418.9444,-287.8314C429.0691,-279.0485 441.3777,-268.3712 452.3548,-258.8489"/>
<polygon fill="#c0c0c0" stroke="#c0c0c0" stroke-width="2" points="454.8019,-261.3595 460.0623,-252.1628 450.2149,-256.0718 454.8019,-261.3595"/>
</g>
<!-- 20&#45;&gt;19 -->
<g id="edge25" class="edge">
<title>20&#45;&gt;19</title>
<path fill="none" stroke="#c0c0c0" stroke-width="2" d="M372.5796,-359.8314C376.3358,-351.8771 380.8257,-342.369 384.9798,-333.5723"/>
<polygon fill="#c0c0c0" stroke="#c0c0c0" stroke-width="2" points="388.1996,-334.9503 389.3048,-324.4133 381.8699,-331.9612 388.1996,-334.9503"/>
</g>
</g>
</svg>
